<svg width="616" height="82" viewBox="0 0 616 82" fill="none" xmlns="http://www.w3.org/2000/svg">
<path d="M616 81H0V83H616V81Z" fill="#EAECF0" mask="url(#path-1-inside-1_50_8811)"/>
<rect x="65" y="16" width="24" height="24" rx="12" fill="#DBEEFB"/>
<path fill-rule="evenodd" clip-rule="evenodd" d="M82.0964 23.39L74.9364 30.3L73.0364 28.27C72.6864 27.94 72.1364 27.92 71.7364 28.2C71.3464 28.49 71.2364 29 71.4764 29.41L73.7264 33.07C73.9464 33.41 74.3264 33.62 74.7564 33.62C75.1664 33.62 75.5564 33.41 75.7764 33.07C76.1364 32.6 83.0064 24.41 83.0064 24.41C83.9064 23.49 82.8164 22.68 82.0964 23.38V23.39Z" fill="#146AA3"/>
<line x1="97" y1="27.5" x2="154" y2="27.5" stroke="#D0D5DD"/>
<path d="M41.0979 54.07C40.8273 53.5007 40.4353 53.062 39.9219 52.754C39.4086 52.4367 38.8113 52.278 38.1299 52.278C37.4486 52.278 36.8326 52.4367 36.2819 52.754C35.7406 53.062 35.3113 53.51 34.9939 54.098C34.6859 54.6767 34.5319 55.3487 34.5319 56.114C34.5319 56.8793 34.6859 57.5513 34.9939 58.13C35.3113 58.7087 35.7406 59.1567 36.2819 59.474C36.8326 59.782 37.4486 59.936 38.1299 59.936C39.0819 59.936 39.8659 59.6513 40.4819 59.082C41.0979 58.5127 41.4573 57.7427 41.5599 56.772H37.6679V55.736H42.9179V56.716C42.8433 57.5187 42.5913 58.256 42.1619 58.928C41.7326 59.5907 41.1679 60.118 40.4679 60.51C39.7679 60.8927 38.9886 61.084 38.1299 61.084C37.2246 61.084 36.3986 60.874 35.6519 60.454C34.9053 60.0247 34.3126 59.432 33.8739 58.676C33.4446 57.92 33.2299 57.066 33.2299 56.114C33.2299 55.162 33.4446 54.308 33.8739 53.552C34.3126 52.7867 34.9053 52.194 35.6519 51.774C36.3986 51.3447 37.2246 51.13 38.1299 51.13C39.1659 51.13 40.0806 51.3867 40.8739 51.9C41.6766 52.4133 42.2599 53.1367 42.6239 54.07H41.0979ZM45.8764 54.574C46.1004 54.1353 46.4177 53.7947 46.8284 53.552C47.2484 53.3093 47.7571 53.188 48.3544 53.188V54.504H48.0184C46.5904 54.504 45.8764 55.2787 45.8764 56.828V61H44.6024V53.328H45.8764V54.574ZM53.1711 61.126C52.4524 61.126 51.7991 60.9627 51.2111 60.636C50.6324 60.3093 50.1751 59.8473 49.8391 59.25C49.5124 58.6433 49.3491 57.9433 49.3491 57.15C49.3491 56.366 49.5171 55.6753 49.8531 55.078C50.1984 54.4713 50.6651 54.0093 51.2531 53.692C51.8411 53.3653 52.4991 53.202 53.2271 53.202C53.9551 53.202 54.6131 53.3653 55.2011 53.692C55.7891 54.0093 56.2511 54.4667 56.5871 55.064C56.9324 55.6613 57.1051 56.3567 57.1051 57.15C57.1051 57.9433 56.9277 58.6433 56.5731 59.25C56.2277 59.8473 55.7564 60.3093 55.1591 60.636C54.5617 60.9627 53.8991 61.126 53.1711 61.126ZM53.1711 60.006C53.6284 60.006 54.0577 59.8987 54.4591 59.684C54.8604 59.4693 55.1824 59.1473 55.4251 58.718C55.6771 58.2887 55.8031 57.766 55.8031 57.15C55.8031 56.534 55.6817 56.0113 55.4391 55.582C55.1964 55.1527 54.8791 54.8353 54.4871 54.63C54.0951 54.4153 53.6704 54.308 53.2131 54.308C52.7464 54.308 52.3171 54.4153 51.9251 54.63C51.5424 54.8353 51.2344 55.1527 51.0011 55.582C50.7677 56.0113 50.6511 56.534 50.6511 57.15C50.6511 57.7753 50.7631 58.3027 50.9871 58.732C51.2204 59.1613 51.5284 59.4833 51.9111 59.698C52.2937 59.9033 52.7137 60.006 53.1711 60.006ZM65.5841 53.328V61H64.3101V59.866C64.0675 60.258 63.7268 60.566 63.2881 60.79C62.8588 61.0047 62.3828 61.112 61.8601 61.112C61.2628 61.112 60.7261 60.9907 60.2501 60.748C59.7741 60.496 59.3961 60.1227 59.1161 59.628C58.8455 59.1333 58.7101 58.5313 58.7101 57.822V53.328H59.9701V57.654C59.9701 58.41 60.1615 58.9933 60.5441 59.404C60.9268 59.8053 61.4495 60.006 62.1121 60.006C62.7935 60.006 63.3301 59.796 63.7221 59.376C64.1141 58.956 64.3101 58.3447 64.3101 57.542V53.328H65.5841ZM69.0092 54.742C69.2612 54.3033 69.6346 53.9393 70.1292 53.65C70.6332 53.3513 71.2166 53.202 71.8792 53.202C72.5606 53.202 73.1766 53.3653 73.7272 53.692C74.2872 54.0187 74.7259 54.4807 75.0432 55.078C75.3606 55.666 75.5192 56.352 75.5192 57.136C75.5192 57.9107 75.3606 58.6013 75.0432 59.208C74.7259 59.8147 74.2872 60.286 73.7272 60.622C73.1766 60.958 72.5606 61.126 71.8792 61.126C71.2259 61.126 70.6472 60.9813 70.1432 60.692C69.6486 60.3933 69.2706 60.0247 69.0092 59.586V64.64H67.7352V53.328H69.0092V54.742ZM74.2172 57.136C74.2172 56.5573 74.1006 56.0533 73.8672 55.624C73.6339 55.1947 73.3166 54.868 72.9152 54.644C72.5232 54.42 72.0892 54.308 71.6132 54.308C71.1466 54.308 70.7126 54.4247 70.3112 54.658C69.9192 54.882 69.6019 55.2133 69.3592 55.652C69.1259 56.0813 69.0092 56.5807 69.0092 57.15C69.0092 57.7287 69.1259 58.2373 69.3592 58.676C69.6019 59.1053 69.9192 59.4367 70.3112 59.67C70.7126 59.894 71.1466 60.006 71.6132 60.006C72.0892 60.006 72.5232 59.894 72.9152 59.67C73.3166 59.4367 73.6339 59.1053 73.8672 58.676C74.1006 58.2373 74.2172 57.724 74.2172 57.136ZM84.6666 53.188C85.5999 53.188 86.3559 53.4727 86.9346 54.042C87.5133 54.602 87.8026 55.414 87.8026 56.478V61H86.5426V56.66C86.5426 55.8947 86.3513 55.3113 85.9686 54.91C85.5859 54.4993 85.0633 54.294 84.4006 54.294C83.7286 54.294 83.1919 54.504 82.7906 54.924C82.3986 55.344 82.2026 55.9553 82.2026 56.758V61H80.9286V53.328H82.2026V54.42C82.4546 54.028 82.7953 53.7247 83.2246 53.51C83.6633 53.2953 84.1439 53.188 84.6666 53.188ZM89.4077 57.136C89.4077 56.352 89.5663 55.666 89.8837 55.078C90.201 54.4807 90.635 54.0187 91.1857 53.692C91.7457 53.3653 92.3663 53.202 93.0477 53.202C93.7197 53.202 94.303 53.3467 94.7977 53.636C95.2923 53.9253 95.661 54.2893 95.9037 54.728V53.328H97.1917V61H95.9037V59.572C95.6517 60.02 95.2737 60.3933 94.7697 60.692C94.275 60.9813 93.6963 61.126 93.0337 61.126C92.3523 61.126 91.7363 60.958 91.1857 60.622C90.635 60.286 90.201 59.8147 89.8837 59.208C89.5663 58.6013 89.4077 57.9107 89.4077 57.136ZM95.9037 57.15C95.9037 56.5713 95.787 56.0673 95.5537 55.638C95.3203 55.2087 95.003 54.882 94.6017 54.658C94.2097 54.4247 93.7757 54.308 93.2997 54.308C92.8237 54.308 92.3897 54.42 91.9977 54.644C91.6057 54.868 91.293 55.1947 91.0597 55.624C90.8263 56.0533 90.7097 56.5573 90.7097 57.136C90.7097 57.724 90.8263 58.2373 91.0597 58.676C91.293 59.1053 91.6057 59.4367 91.9977 59.67C92.3897 59.894 92.8237 60.006 93.2997 60.006C93.7757 60.006 94.2097 59.894 94.6017 59.67C95.003 59.4367 95.3203 59.1053 95.5537 58.676C95.787 58.2373 95.9037 57.7287 95.9037 57.15ZM108.571 53.188C109.168 53.188 109.7 53.314 110.167 53.566C110.633 53.8087 111.002 54.1773 111.273 54.672C111.543 55.1667 111.679 55.7687 111.679 56.478V61H110.419V56.66C110.419 55.8947 110.227 55.3113 109.845 54.91C109.471 54.4993 108.963 54.294 108.319 54.294C107.656 54.294 107.129 54.5087 106.737 54.938C106.345 55.358 106.149 55.9693 106.149 56.772V61H104.889V56.66C104.889 55.8947 104.697 55.3113 104.315 54.91C103.941 54.4993 103.433 54.294 102.789 54.294C102.126 54.294 101.599 54.5087 101.207 54.938C100.815 55.358 100.619 55.9693 100.619 56.772V61H99.3446V53.328H100.619V54.434C100.871 54.0327 101.207 53.7247 101.627 53.51C102.056 53.2953 102.527 53.188 103.041 53.188C103.685 53.188 104.254 53.3327 104.749 53.622C105.243 53.9113 105.612 54.336 105.855 54.896C106.069 54.3547 106.424 53.9347 106.919 53.636C107.413 53.3373 107.964 53.188 108.571 53.188ZM120.768 56.87C120.768 57.1127 120.754 57.3693 120.726 57.64H114.594C114.641 58.396 114.898 58.9887 115.364 59.418C115.84 59.838 116.414 60.048 117.086 60.048C117.637 60.048 118.094 59.922 118.458 59.67C118.832 59.4087 119.093 59.0633 119.242 58.634H120.614C120.409 59.3713 119.998 59.9733 119.382 60.44C118.766 60.8973 118.001 61.126 117.086 61.126C116.358 61.126 115.705 60.9627 115.126 60.636C114.557 60.3093 114.109 59.8473 113.782 59.25C113.456 58.6433 113.292 57.9433 113.292 57.15C113.292 56.3567 113.451 55.6613 113.768 55.064C114.086 54.4667 114.529 54.0093 115.098 53.692C115.677 53.3653 116.34 53.202 117.086 53.202C117.814 53.202 118.458 53.3607 119.018 53.678C119.578 53.9953 120.008 54.434 120.306 54.994C120.614 55.5447 120.768 56.17 120.768 56.87ZM119.452 56.604C119.452 56.1187 119.345 55.7033 119.13 55.358C118.916 55.0033 118.622 54.7373 118.248 54.56C117.884 54.3733 117.478 54.28 117.03 54.28C116.386 54.28 115.836 54.4853 115.378 54.896C114.93 55.3067 114.674 55.876 114.608 56.604H119.452Z" fill="#475467"/>
<line x1="154" y1="27.5" x2="211" y2="27.5" stroke="#D0D5DD"/>
<rect x="219" y="16" width="24" height="24" rx="12" fill="#DBEEFB"/>
<path fill-rule="evenodd" clip-rule="evenodd" d="M236.096 23.39L228.936 30.3L227.036 28.27C226.686 27.94 226.136 27.92 225.736 28.2C225.346 28.49 225.236 29 225.476 29.41L227.726 33.07C227.946 33.41 228.326 33.62 228.756 33.62C229.166 33.62 229.556 33.41 229.776 33.07C230.136 32.6 237.006 24.41 237.006 24.41C237.906 23.49 236.816 22.68 236.096 23.38V23.39Z" fill="#146AA3"/>
<line x1="251" y1="27.5" x2="308" y2="27.5" stroke="#D0D5DD"/>
<path d="M199.536 61.098C198.892 61.098 198.314 60.986 197.8 60.762C197.296 60.5287 196.9 60.2113 196.61 59.81C196.321 59.3993 196.172 58.928 196.162 58.396H197.52C197.567 58.8533 197.754 59.2407 198.08 59.558C198.416 59.866 198.902 60.02 199.536 60.02C200.143 60.02 200.619 59.8707 200.964 59.572C201.319 59.264 201.496 58.872 201.496 58.396C201.496 58.0227 201.394 57.7193 201.188 57.486C200.983 57.2527 200.726 57.0753 200.418 56.954C200.11 56.8327 199.695 56.702 199.172 56.562C198.528 56.394 198.01 56.226 197.618 56.058C197.236 55.89 196.904 55.6287 196.624 55.274C196.354 54.91 196.218 54.4247 196.218 53.818C196.218 53.286 196.354 52.8147 196.624 52.404C196.895 51.9933 197.273 51.676 197.758 51.452C198.253 51.228 198.818 51.116 199.452 51.116C200.367 51.116 201.114 51.3447 201.692 51.802C202.28 52.2593 202.612 52.866 202.686 53.622H201.286C201.24 53.2487 201.044 52.922 200.698 52.642C200.353 52.3527 199.896 52.208 199.326 52.208C198.794 52.208 198.36 52.348 198.024 52.628C197.688 52.8987 197.52 53.2813 197.52 53.776C197.52 54.1307 197.618 54.42 197.814 54.644C198.02 54.868 198.267 55.0407 198.556 55.162C198.855 55.274 199.27 55.4047 199.802 55.554C200.446 55.7313 200.964 55.9087 201.356 56.086C201.748 56.254 202.084 56.52 202.364 56.884C202.644 57.2387 202.784 57.724 202.784 58.34C202.784 58.816 202.658 59.264 202.406 59.684C202.154 60.104 201.781 60.4447 201.286 60.706C200.792 60.9673 200.208 61.098 199.536 61.098ZM206.213 54.378V58.9C206.213 59.2733 206.292 59.5393 206.451 59.698C206.61 59.8473 206.885 59.922 207.277 59.922H208.215V61H207.067C206.358 61 205.826 60.8367 205.471 60.51C205.116 60.1833 204.939 59.6467 204.939 58.9V54.378H203.945V53.328H204.939V51.396H206.213V53.328H208.215V54.378H206.213ZM211.033 54.574C211.257 54.1353 211.574 53.7947 211.985 53.552C212.405 53.3093 212.913 53.188 213.511 53.188V54.504H213.175C211.747 54.504 211.033 55.2787 211.033 56.828V61H209.759V53.328H211.033V54.574ZM221.785 53.328V61H220.511V59.866C220.269 60.258 219.928 60.566 219.489 60.79C219.06 61.0047 218.584 61.112 218.061 61.112C217.464 61.112 216.927 60.9907 216.451 60.748C215.975 60.496 215.597 60.1227 215.317 59.628C215.047 59.1333 214.911 58.5313 214.911 57.822V53.328H216.171V57.654C216.171 58.41 216.363 58.9933 216.745 59.404C217.128 59.8053 217.651 60.006 218.313 60.006C218.995 60.006 219.531 59.796 219.923 59.376C220.315 58.956 220.511 58.3447 220.511 57.542V53.328H221.785ZM223.46 57.15C223.46 56.3567 223.619 55.666 223.936 55.078C224.254 54.4807 224.692 54.0187 225.252 53.692C225.822 53.3653 226.47 53.202 227.198 53.202C228.141 53.202 228.916 53.4307 229.522 53.888C230.138 54.3453 230.544 54.98 230.74 55.792H229.368C229.238 55.3253 228.981 54.9567 228.598 54.686C228.225 54.4153 227.758 54.28 227.198 54.28C226.47 54.28 225.882 54.532 225.434 55.036C224.986 55.5307 224.762 56.2353 224.762 57.15C224.762 58.074 224.986 58.788 225.434 59.292C225.882 59.796 226.47 60.048 227.198 60.048C227.758 60.048 228.225 59.9173 228.598 59.656C228.972 59.3947 229.228 59.0213 229.368 58.536H230.74C230.535 59.32 230.124 59.95 229.508 60.426C228.892 60.8927 228.122 61.126 227.198 61.126C226.47 61.126 225.822 60.9627 225.252 60.636C224.692 60.3093 224.254 59.8473 223.936 59.25C223.619 58.6527 223.46 57.9527 223.46 57.15ZM233.994 54.378V58.9C233.994 59.2733 234.074 59.5393 234.232 59.698C234.391 59.8473 234.666 59.922 235.058 59.922H235.996V61H234.848C234.139 61 233.607 60.8367 233.252 60.51C232.898 60.1833 232.72 59.6467 232.72 58.9V54.378H231.726V53.328H232.72V51.396H233.994V53.328H235.996V54.378H233.994ZM244.344 53.328V61H243.07V59.866C242.827 60.258 242.487 60.566 242.048 60.79C241.619 61.0047 241.143 61.112 240.62 61.112C240.023 61.112 239.486 60.9907 239.01 60.748C238.534 60.496 238.156 60.1227 237.876 59.628C237.605 59.1333 237.47 58.5313 237.47 57.822V53.328H238.73V57.654C238.73 58.41 238.921 58.9933 239.304 59.404C239.687 59.8053 240.209 60.006 240.872 60.006C241.553 60.006 242.09 59.796 242.482 59.376C242.874 58.956 243.07 58.3447 243.07 57.542V53.328H244.344ZM247.769 54.574C247.993 54.1353 248.31 53.7947 248.721 53.552C249.141 53.3093 249.65 53.188 250.247 53.188V54.504H249.911C248.483 54.504 247.769 55.2787 247.769 56.828V61H246.495V53.328H247.769V54.574ZM258.718 56.87C258.718 57.1127 258.704 57.3693 258.676 57.64H252.544C252.59 58.396 252.847 58.9887 253.314 59.418C253.79 59.838 254.364 60.048 255.036 60.048C255.586 60.048 256.044 59.922 256.408 59.67C256.781 59.4087 257.042 59.0633 257.192 58.634H258.564C258.358 59.3713 257.948 59.9733 257.332 60.44C256.716 60.8973 255.95 61.126 255.036 61.126C254.308 61.126 253.654 60.9627 253.076 60.636C252.506 60.3093 252.058 59.8473 251.732 59.25C251.405 58.6433 251.242 57.9433 251.242 57.15C251.242 56.3567 251.4 55.6613 251.718 55.064C252.035 54.4667 252.478 54.0093 253.048 53.692C253.626 53.3653 254.289 53.202 255.036 53.202C255.764 53.202 256.408 53.3607 256.968 53.678C257.528 53.9953 257.957 54.434 258.256 54.994C258.564 55.5447 258.718 56.17 258.718 56.87ZM257.402 56.604C257.402 56.1187 257.294 55.7033 257.08 55.358C256.865 55.0033 256.571 54.7373 256.198 54.56C255.834 54.3733 255.428 54.28 254.98 54.28C254.336 54.28 253.785 54.4853 253.328 54.896C252.88 55.3067 252.623 55.876 252.558 56.604H257.402ZM263.115 61.126C262.527 61.126 262 61.028 261.533 60.832C261.067 60.6267 260.698 60.3467 260.427 59.992C260.157 59.628 260.007 59.2127 259.979 58.746H261.295C261.333 59.1287 261.51 59.4413 261.827 59.684C262.154 59.9267 262.579 60.048 263.101 60.048C263.587 60.048 263.969 59.9407 264.249 59.726C264.529 59.5113 264.669 59.2407 264.669 58.914C264.669 58.578 264.52 58.3307 264.221 58.172C263.923 58.004 263.461 57.8407 262.835 57.682C262.266 57.5327 261.799 57.3833 261.435 57.234C261.081 57.0753 260.773 56.8467 260.511 56.548C260.259 56.24 260.133 55.8387 260.133 55.344C260.133 54.952 260.25 54.5927 260.483 54.266C260.717 53.9393 261.048 53.6827 261.477 53.496C261.907 53.3 262.397 53.202 262.947 53.202C263.797 53.202 264.483 53.4167 265.005 53.846C265.528 54.2753 265.808 54.8633 265.845 55.61H264.571C264.543 55.2087 264.38 54.8867 264.081 54.644C263.792 54.4013 263.4 54.28 262.905 54.28C262.448 54.28 262.084 54.378 261.813 54.574C261.543 54.77 261.407 55.0267 261.407 55.344C261.407 55.596 261.487 55.806 261.645 55.974C261.813 56.1327 262.019 56.2633 262.261 56.366C262.513 56.4593 262.859 56.5667 263.297 56.688C263.848 56.8373 264.296 56.9867 264.641 57.136C264.987 57.276 265.281 57.4907 265.523 57.78C265.775 58.0693 265.906 58.4473 265.915 58.914C265.915 59.334 265.799 59.712 265.565 60.048C265.332 60.384 265.001 60.65 264.571 60.846C264.151 61.0327 263.666 61.126 263.115 61.126Z" fill="#475467"/>
<line x1="308" y1="27.5" x2="365" y2="27.5" stroke="#D0D5DD"/>
<rect x="373" y="16" width="24" height="24" rx="12" fill="#101828"/>
<path d="M381.58 25.482C381.626 24.5487 381.953 23.83 382.56 23.326C383.176 22.8127 383.983 22.556 384.982 22.556C385.663 22.556 386.246 22.6773 386.732 22.92C387.217 23.1533 387.581 23.4753 387.824 23.886C388.076 24.2873 388.202 24.7447 388.202 25.258C388.202 25.846 388.048 26.3453 387.74 26.756C387.441 27.1573 387.082 27.428 386.662 27.568V27.624C387.203 27.792 387.623 28.0907 387.922 28.52C388.23 28.9493 388.384 29.5 388.384 30.172C388.384 30.732 388.253 31.2313 387.992 31.67C387.74 32.1087 387.362 32.454 386.858 32.706C386.363 32.9487 385.766 33.07 385.066 33.07C384.011 33.07 383.152 32.804 382.49 32.272C381.827 31.74 381.477 30.956 381.44 29.92H383.344C383.362 30.3773 383.516 30.746 383.806 31.026C384.104 31.2967 384.51 31.432 385.024 31.432C385.5 31.432 385.864 31.3013 386.116 31.04C386.377 30.7693 386.508 30.424 386.508 30.004C386.508 29.444 386.33 29.0427 385.976 28.8C385.621 28.5573 385.07 28.436 384.324 28.436H383.918V26.826H384.324C385.649 26.826 386.312 26.3827 386.312 25.496C386.312 25.0947 386.19 24.782 385.948 24.558C385.714 24.334 385.374 24.222 384.926 24.222C384.487 24.222 384.146 24.3433 383.904 24.586C383.67 24.8193 383.535 25.118 383.498 25.482H381.58Z" fill="white"/>
<line x1="405" y1="27.5" x2="462" y2="27.5" stroke="#D0D5DD"/>
<path d="M362.469 52.558V55.414H365.829V56.716H362.469V59.698H366.249V61H360.873V51.256H366.249V52.558H362.469ZM372.107 53.16C372.714 53.16 373.255 53.286 373.731 53.538C374.216 53.79 374.594 54.1633 374.865 54.658C375.136 55.1527 375.271 55.75 375.271 56.45V61H373.689V56.688C373.689 55.9973 373.516 55.47 373.171 55.106C372.826 54.7327 372.354 54.546 371.757 54.546C371.16 54.546 370.684 54.7327 370.329 55.106C369.984 55.47 369.811 55.9973 369.811 56.688V61H368.215V53.286H369.811V54.168C370.072 53.8507 370.404 53.6033 370.805 53.426C371.216 53.2487 371.65 53.16 372.107 53.16ZM379.169 54.588V58.858C379.169 59.1473 379.234 59.3573 379.365 59.488C379.505 59.6093 379.738 59.67 380.065 59.67H381.045V61H379.785C379.066 61 378.516 60.832 378.133 60.496C377.75 60.16 377.559 59.614 377.559 58.858V54.588H376.649V53.286H377.559V51.368H379.169V53.286H381.045V54.588H379.169ZM383.328 52.264C383.038 52.264 382.796 52.166 382.6 51.97C382.404 51.774 382.306 51.5313 382.306 51.242C382.306 50.9527 382.404 50.71 382.6 50.514C382.796 50.318 383.038 50.22 383.328 50.22C383.608 50.22 383.846 50.318 384.042 50.514C384.238 50.71 384.336 50.9527 384.336 51.242C384.336 51.5313 384.238 51.774 384.042 51.97C383.846 52.166 383.608 52.264 383.328 52.264ZM384.112 53.286V61H382.516V53.286H384.112ZM388.069 54.588V58.858C388.069 59.1473 388.135 59.3573 388.265 59.488C388.405 59.6093 388.639 59.67 388.965 59.67H389.945V61H388.685C387.967 61 387.416 60.832 387.033 60.496C386.651 60.16 386.459 59.614 386.459 58.858V54.588H385.549V53.286H386.459V51.368H388.069V53.286H389.945V54.588H388.069ZM392.228 52.264C391.939 52.264 391.696 52.166 391.5 51.97C391.304 51.774 391.206 51.5313 391.206 51.242C391.206 50.9527 391.304 50.71 391.5 50.514C391.696 50.318 391.939 50.22 392.228 50.22C392.508 50.22 392.746 50.318 392.942 50.514C393.138 50.71 393.236 50.9527 393.236 51.242C393.236 51.5313 393.138 51.774 392.942 51.97C392.746 52.166 392.508 52.264 392.228 52.264ZM393.012 53.286V61H391.416V53.286H393.012ZM402.178 56.954C402.178 57.2433 402.159 57.5047 402.122 57.738H396.228C396.274 58.354 396.503 58.8487 396.914 59.222C397.324 59.5953 397.828 59.782 398.426 59.782C399.284 59.782 399.891 59.4227 400.246 58.704H401.968C401.734 59.4133 401.31 59.9967 400.694 60.454C400.087 60.902 399.331 61.126 398.426 61.126C397.688 61.126 397.026 60.9627 396.438 60.636C395.859 60.3 395.402 59.8333 395.066 59.236C394.739 58.6293 394.576 57.9293 394.576 57.136C394.576 56.3427 394.734 55.6473 395.052 55.05C395.378 54.4433 395.831 53.9767 396.41 53.65C396.998 53.3233 397.67 53.16 398.426 53.16C399.154 53.16 399.802 53.3187 400.372 53.636C400.941 53.9533 401.384 54.4013 401.702 54.98C402.019 55.5493 402.178 56.2073 402.178 56.954ZM400.512 56.45C400.502 55.862 400.292 55.3907 399.882 55.036C399.471 54.6813 398.962 54.504 398.356 54.504C397.805 54.504 397.334 54.6813 396.942 55.036C396.55 55.3813 396.316 55.8527 396.242 56.45H400.512ZM406.548 61.126C405.942 61.126 405.396 61.0187 404.91 60.804C404.434 60.58 404.056 60.2813 403.776 59.908C403.496 59.5253 403.347 59.1007 403.328 58.634H404.98C405.008 58.9607 405.162 59.236 405.442 59.46C405.732 59.6747 406.091 59.782 406.52 59.782C406.968 59.782 407.314 59.698 407.556 59.53C407.808 59.3527 407.934 59.1287 407.934 58.858C407.934 58.5687 407.794 58.354 407.514 58.214C407.244 58.074 406.81 57.92 406.212 57.752C405.634 57.5933 405.162 57.4393 404.798 57.29C404.434 57.1407 404.117 56.912 403.846 56.604C403.585 56.296 403.454 55.89 403.454 55.386C403.454 54.9753 403.576 54.602 403.818 54.266C404.061 53.9207 404.406 53.65 404.854 53.454C405.312 53.258 405.834 53.16 406.422 53.16C407.3 53.16 408.004 53.384 408.536 53.832C409.078 54.2707 409.367 54.8727 409.404 55.638H407.808C407.78 55.2927 407.64 55.0173 407.388 54.812C407.136 54.6067 406.796 54.504 406.366 54.504C405.946 54.504 405.624 54.5833 405.4 54.742C405.176 54.9007 405.064 55.1107 405.064 55.372C405.064 55.5773 405.139 55.75 405.288 55.89C405.438 56.03 405.62 56.142 405.834 56.226C406.049 56.3007 406.366 56.3987 406.786 56.52C407.346 56.6693 407.804 56.8233 408.158 56.982C408.522 57.1313 408.835 57.3553 409.096 57.654C409.358 57.9527 409.493 58.3493 409.502 58.844C409.502 59.2827 409.381 59.6747 409.138 60.02C408.896 60.3653 408.55 60.636 408.102 60.832C407.664 61.028 407.146 61.126 406.548 61.126Z" fill="#101828"/>
<line x1="462" y1="27.5" x2="519" y2="27.5" stroke="#D0D5DD"/>
<rect x="527.5" y="16.5" width="23" height="23" rx="11.5" stroke="#D0D5DD"/>
<path d="M535.112 30.872V29.668L539.816 22.92H541.748V29.486H543.05V30.872H541.748V33H540.18V30.872H535.112ZM540.25 24.544L536.946 29.486H540.25V24.544Z" fill="#101828"/>
<path d="M517.054 51.312V61H515.78V53.776L512.56 61H511.664L508.43 53.762V61H507.156V51.312H508.528L512.112 59.32L515.696 51.312H517.054ZM526.215 56.87C526.215 57.1127 526.201 57.3693 526.173 57.64H520.041C520.087 58.396 520.344 58.9887 520.811 59.418C521.287 59.838 521.861 60.048 522.533 60.048C523.083 60.048 523.541 59.922 523.905 59.67C524.278 59.4087 524.539 59.0633 524.689 58.634H526.061C525.855 59.3713 525.445 59.9733 524.829 60.44C524.213 60.8973 523.447 61.126 522.533 61.126C521.805 61.126 521.151 60.9627 520.573 60.636C520.003 60.3093 519.555 59.8473 519.229 59.25C518.902 58.6433 518.739 57.9433 518.739 57.15C518.739 56.3567 518.897 55.6613 519.215 55.064C519.532 54.4667 519.975 54.0093 520.545 53.692C521.123 53.3653 521.786 53.202 522.533 53.202C523.261 53.202 523.905 53.3607 524.465 53.678C525.025 53.9953 525.454 54.434 525.753 54.994C526.061 55.5447 526.215 56.17 526.215 56.87ZM524.899 56.604C524.899 56.1187 524.791 55.7033 524.577 55.358C524.362 55.0033 524.068 54.7373 523.695 54.56C523.331 54.3733 522.925 54.28 522.477 54.28C521.833 54.28 521.282 54.4853 520.825 54.896C520.377 55.3067 520.12 55.876 520.055 56.604H524.899ZM537.122 53.188C537.72 53.188 538.252 53.314 538.718 53.566C539.185 53.8087 539.554 54.1773 539.824 54.672C540.095 55.1667 540.23 55.7687 540.23 56.478V61H538.97V56.66C538.97 55.8947 538.779 55.3113 538.396 54.91C538.023 54.4993 537.514 54.294 536.87 54.294C536.208 54.294 535.68 54.5087 535.288 54.938C534.896 55.358 534.7 55.9693 534.7 56.772V61H533.44V56.66C533.44 55.8947 533.249 55.3113 532.866 54.91C532.493 54.4993 531.984 54.294 531.34 54.294C530.678 54.294 530.15 54.5087 529.758 54.938C529.366 55.358 529.17 55.9693 529.17 56.772V61H527.896V53.328H529.17V54.434C529.422 54.0327 529.758 53.7247 530.178 53.51C530.608 53.2953 531.079 53.188 531.592 53.188C532.236 53.188 532.806 53.3327 533.3 53.622C533.795 53.9113 534.164 54.336 534.406 54.896C534.621 54.3547 534.976 53.9347 535.47 53.636C535.965 53.3373 536.516 53.188 537.122 53.188ZM543.594 54.756C543.856 54.2987 544.238 53.9253 544.742 53.636C545.246 53.3467 545.82 53.202 546.464 53.202C547.155 53.202 547.776 53.3653 548.326 53.692C548.877 54.0187 549.311 54.4807 549.628 55.078C549.946 55.666 550.104 56.352 550.104 57.136C550.104 57.9107 549.946 58.6013 549.628 59.208C549.311 59.8147 548.872 60.286 548.312 60.622C547.762 60.958 547.146 61.126 546.464 61.126C545.802 61.126 545.218 60.9813 544.714 60.692C544.22 60.4027 543.846 60.034 543.594 59.586V61H542.32V50.64H543.594V54.756ZM548.802 57.136C548.802 56.5573 548.686 56.0533 548.452 55.624C548.219 55.1947 547.902 54.868 547.5 54.644C547.108 54.42 546.674 54.308 546.198 54.308C545.732 54.308 545.298 54.4247 544.896 54.658C544.504 54.882 544.187 55.2133 543.944 55.652C543.711 56.0813 543.594 56.5807 543.594 57.15C543.594 57.7287 543.711 58.2373 543.944 58.676C544.187 59.1053 544.504 59.4367 544.896 59.67C545.298 59.894 545.732 60.006 546.198 60.006C546.674 60.006 547.108 59.894 547.5 59.67C547.902 59.4367 548.219 59.1053 548.452 58.676C548.686 58.2373 548.802 57.724 548.802 57.136ZM558.781 56.87C558.781 57.1127 558.767 57.3693 558.739 57.64H552.607C552.654 58.396 552.91 58.9887 553.377 59.418C553.853 59.838 554.427 60.048 555.099 60.048C555.65 60.048 556.107 59.922 556.471 59.67C556.844 59.4087 557.106 59.0633 557.255 58.634H558.627C558.422 59.3713 558.011 59.9733 557.395 60.44C556.779 60.8973 556.014 61.126 555.099 61.126C554.371 61.126 553.718 60.9627 553.139 60.636C552.57 60.3093 552.122 59.8473 551.795 59.25C551.468 58.6433 551.305 57.9433 551.305 57.15C551.305 56.3567 551.464 55.6613 551.781 55.064C552.098 54.4667 552.542 54.0093 553.111 53.692C553.69 53.3653 554.352 53.202 555.099 53.202C555.827 53.202 556.471 53.3607 557.031 53.678C557.591 53.9953 558.02 54.434 558.319 54.994C558.627 55.5447 558.781 56.17 558.781 56.87ZM557.465 56.604C557.465 56.1187 557.358 55.7033 557.143 55.358C556.928 55.0033 556.634 54.7373 556.261 54.56C555.897 54.3733 555.491 54.28 555.043 54.28C554.399 54.28 553.848 54.4853 553.391 54.896C552.943 55.3067 552.686 55.876 552.621 56.604H557.465ZM561.737 54.574C561.961 54.1353 562.278 53.7947 562.689 53.552C563.109 53.3093 563.617 53.188 564.215 53.188V54.504H563.879C562.451 54.504 561.737 55.2787 561.737 56.828V61H560.463V53.328H561.737V54.574ZM568.401 61.126C567.813 61.126 567.286 61.028 566.819 60.832C566.353 60.6267 565.984 60.3467 565.713 59.992C565.443 59.628 565.293 59.2127 565.265 58.746H566.581C566.619 59.1287 566.796 59.4413 567.113 59.684C567.44 59.9267 567.865 60.048 568.387 60.048C568.873 60.048 569.255 59.9407 569.535 59.726C569.815 59.5113 569.955 59.2407 569.955 58.914C569.955 58.578 569.806 58.3307 569.507 58.172C569.209 58.004 568.747 57.8407 568.121 57.682C567.552 57.5327 567.085 57.3833 566.721 57.234C566.367 57.0753 566.059 56.8467 565.797 56.548C565.545 56.24 565.419 55.8387 565.419 55.344C565.419 54.952 565.536 54.5927 565.769 54.266C566.003 53.9393 566.334 53.6827 566.763 53.496C567.193 53.3 567.683 53.202 568.233 53.202C569.083 53.202 569.769 53.4167 570.291 53.846C570.814 54.2753 571.094 54.8633 571.131 55.61H569.857C569.829 55.2087 569.666 54.8867 569.367 54.644C569.078 54.4013 568.686 54.28 568.191 54.28C567.734 54.28 567.37 54.378 567.099 54.574C566.829 54.77 566.693 55.0267 566.693 55.344C566.693 55.596 566.773 55.806 566.931 55.974C567.099 56.1327 567.305 56.2633 567.547 56.366C567.799 56.4593 568.145 56.5667 568.583 56.688C569.134 56.8373 569.582 56.9867 569.927 57.136C570.273 57.276 570.567 57.4907 570.809 57.78C571.061 58.0693 571.192 58.4473 571.201 58.914C571.201 59.334 571.085 59.712 570.851 60.048C570.618 60.384 570.287 60.65 569.857 60.846C569.437 61.0327 568.952 61.126 568.401 61.126Z" fill="#475467"/>
</svg>
