<svg width="600" height="82" viewBox="0 0 600 82" fill="none" xmlns="http://www.w3.org/2000/svg">
<path d="M600 81H0V83H600V81Z" fill="#EAECF0" mask="url(#path-1-inside-1_44_5711)"/>
<rect x="63" y="16" width="24" height="24" rx="12" fill="#101828"/>
<path d="M72.9679 24.6V22.794H76.3419V33H74.3259V24.6H72.9679Z" fill="white"/>
<line x1="95" y1="27.5" x2="150" y2="27.5" stroke="#D0D5DD"/>
<path d="M38.5354 54.07C38.2834 53.5847 37.9334 53.2207 37.4854 52.978C37.0374 52.726 36.5194 52.6 35.9314 52.6C35.2874 52.6 34.7134 52.7447 34.2094 53.034C33.7054 53.3233 33.3087 53.734 33.0194 54.266C32.7394 54.798 32.5994 55.414 32.5994 56.114C32.5994 56.814 32.7394 57.4347 33.0194 57.976C33.3087 58.508 33.7054 58.9187 34.2094 59.208C34.7134 59.4973 35.2874 59.642 35.9314 59.642C36.7994 59.642 37.504 59.3993 38.0454 58.914C38.5867 58.4287 38.918 57.7707 39.0394 56.94H35.3854V55.666H40.7474V56.912C40.6447 57.668 40.374 58.3633 39.9354 58.998C39.506 59.6327 38.9414 60.1413 38.2414 60.524C37.5507 60.8973 36.7807 61.084 35.9314 61.084C35.0167 61.084 34.1814 60.874 33.4254 60.454C32.6694 60.0247 32.0674 59.432 31.6194 58.676C31.1807 57.92 30.9614 57.066 30.9614 56.114C30.9614 55.162 31.1807 54.308 31.6194 53.552C32.0674 52.796 32.6694 52.208 33.4254 51.788C34.1907 51.3587 35.026 51.144 35.9314 51.144C36.9674 51.144 37.8867 51.4007 38.6894 51.914C39.5014 52.418 40.0894 53.1367 40.4534 54.07H38.5354ZM43.9175 54.406C44.1508 54.014 44.4588 53.7107 44.8415 53.496C45.2335 53.272 45.6955 53.16 46.2275 53.16V54.812H45.8215C45.1962 54.812 44.7202 54.9707 44.3935 55.288C44.0762 55.6053 43.9175 56.156 43.9175 56.94V61H42.3215V53.286H43.9175V54.406ZM51.0405 61.126C50.3125 61.126 49.6545 60.9627 49.0665 60.636C48.4785 60.3 48.0165 59.8333 47.6805 59.236C47.3445 58.6293 47.1765 57.9293 47.1765 57.136C47.1765 56.352 47.3492 55.6567 47.6945 55.05C48.0399 54.4433 48.5112 53.9767 49.1085 53.65C49.7059 53.3233 50.3732 53.16 51.1105 53.16C51.8479 53.16 52.5152 53.3233 53.1125 53.65C53.7099 53.9767 54.1812 54.4433 54.5265 55.05C54.8719 55.6567 55.0445 56.352 55.0445 57.136C55.0445 57.92 54.8672 58.6153 54.5125 59.222C54.1579 59.8287 53.6725 60.3 53.0565 60.636C52.4499 60.9627 51.7779 61.126 51.0405 61.126ZM51.0405 59.74C51.4512 59.74 51.8339 59.642 52.1885 59.446C52.5525 59.25 52.8465 58.956 53.0705 58.564C53.2945 58.172 53.4065 57.696 53.4065 57.136C53.4065 56.576 53.2992 56.1047 53.0845 55.722C52.8699 55.33 52.5852 55.036 52.2305 54.84C51.8759 54.644 51.4932 54.546 51.0825 54.546C50.6719 54.546 50.2892 54.644 49.9345 54.84C49.5892 55.036 49.3139 55.33 49.1085 55.722C48.9032 56.1047 48.8005 56.576 48.8005 57.136C48.8005 57.9667 49.0105 58.6107 49.4305 59.068C49.8599 59.516 50.3965 59.74 51.0405 59.74ZM63.6083 53.286V61H62.0123V60.09C61.7603 60.4073 61.4289 60.6593 61.0183 60.846C60.6169 61.0233 60.1876 61.112 59.7303 61.112C59.1236 61.112 58.5776 60.986 58.0923 60.734C57.6163 60.482 57.2383 60.1087 56.9583 59.614C56.6876 59.1193 56.5523 58.522 56.5523 57.822V53.286H58.1343V57.584C58.1343 58.2747 58.3069 58.8067 58.6523 59.18C58.9976 59.544 59.4689 59.726 60.0663 59.726C60.6636 59.726 61.1349 59.544 61.4803 59.18C61.8349 58.8067 62.0123 58.2747 62.0123 57.584V53.286H63.6083ZM67.3101 54.42C67.5807 54.0653 67.9494 53.7667 68.4161 53.524C68.8827 53.2813 69.4101 53.16 69.9981 53.16C70.6701 53.16 71.2814 53.328 71.8321 53.664C72.3921 53.9907 72.8307 54.4527 73.1481 55.05C73.4654 55.6473 73.6241 56.3333 73.6241 57.108C73.6241 57.8827 73.4654 58.578 73.1481 59.194C72.8307 59.8007 72.3921 60.2767 71.8321 60.622C71.2814 60.958 70.6701 61.126 69.9981 61.126C69.4101 61.126 68.8874 61.0093 68.4301 60.776C67.9727 60.5333 67.5994 60.2347 67.3101 59.88V64.668H65.7141V53.286H67.3101V54.42ZM72.0001 57.108C72.0001 56.576 71.8881 56.1187 71.6641 55.736C71.4494 55.344 71.1601 55.05 70.7961 54.854C70.4414 54.6487 70.0587 54.546 69.6481 54.546C69.2467 54.546 68.8641 54.6487 68.5001 54.854C68.1454 55.0593 67.8561 55.358 67.6321 55.75C67.4174 56.142 67.3101 56.604 67.3101 57.136C67.3101 57.668 67.4174 58.1347 67.6321 58.536C67.8561 58.928 68.1454 59.2267 68.5001 59.432C68.8641 59.6373 69.2467 59.74 69.6481 59.74C70.0587 59.74 70.4414 59.6373 70.7961 59.432C71.1601 59.2173 71.4494 58.9093 71.6641 58.508C71.8881 58.1067 72.0001 57.64 72.0001 57.108ZM82.7311 53.16C83.3377 53.16 83.8791 53.286 84.3551 53.538C84.8404 53.79 85.2184 54.1633 85.4891 54.658C85.7597 55.1527 85.8951 55.75 85.8951 56.45V61H84.3131V56.688C84.3131 55.9973 84.1404 55.47 83.7951 55.106C83.4497 54.7327 82.9784 54.546 82.3811 54.546C81.7837 54.546 81.3077 54.7327 80.9531 55.106C80.6077 55.47 80.4351 55.9973 80.4351 56.688V61H78.8391V53.286H80.4351V54.168C80.6964 53.8507 81.0277 53.6033 81.4291 53.426C81.8397 53.2487 82.2737 53.16 82.7311 53.16ZM87.3989 57.108C87.3989 56.3333 87.5575 55.6473 87.8749 55.05C88.2015 54.4527 88.6402 53.9907 89.1909 53.664C89.7509 53.328 90.3669 53.16 91.0389 53.16C91.6455 53.16 92.1729 53.2813 92.6209 53.524C93.0782 53.7573 93.4422 54.0513 93.7129 54.406V53.286H95.3229V61H93.7129V59.852C93.4422 60.216 93.0735 60.5193 92.6069 60.762C92.1402 61.0047 91.6082 61.126 91.0109 61.126C90.3482 61.126 89.7415 60.958 89.1909 60.622C88.6402 60.2767 88.2015 59.8007 87.8749 59.194C87.5575 58.578 87.3989 57.8827 87.3989 57.108ZM93.7129 57.136C93.7129 56.604 93.6009 56.142 93.3769 55.75C93.1622 55.358 92.8775 55.0593 92.5229 54.854C92.1682 54.6487 91.7855 54.546 91.3749 54.546C90.9642 54.546 90.5815 54.6487 90.2269 54.854C89.8722 55.05 89.5829 55.344 89.3589 55.736C89.1442 56.1187 89.0369 56.576 89.0369 57.108C89.0369 57.64 89.1442 58.1067 89.3589 58.508C89.5829 58.9093 89.8722 59.2173 90.2269 59.432C90.5909 59.6373 90.9735 59.74 91.3749 59.74C91.7855 59.74 92.1682 59.6373 92.5229 59.432C92.8775 59.2267 93.1622 58.928 93.3769 58.536C93.6009 58.1347 93.7129 57.668 93.7129 57.136ZM106.757 53.16C107.364 53.16 107.905 53.286 108.381 53.538C108.866 53.79 109.244 54.1633 109.515 54.658C109.795 55.1527 109.935 55.75 109.935 56.45V61H108.353V56.688C108.353 55.9973 108.18 55.47 107.835 55.106C107.49 54.7327 107.018 54.546 106.421 54.546C105.824 54.546 105.348 54.7327 104.993 55.106C104.648 55.47 104.475 55.9973 104.475 56.688V61H102.893V56.688C102.893 55.9973 102.72 55.47 102.375 55.106C102.03 54.7327 101.558 54.546 100.961 54.546C100.364 54.546 99.8878 54.7327 99.5331 55.106C99.1878 55.47 99.0151 55.9973 99.0151 56.688V61H97.4191V53.286H99.0151V54.168C99.2765 53.8507 99.6078 53.6033 100.009 53.426C100.41 53.2487 100.84 53.16 101.297 53.16C101.913 53.16 102.464 53.2907 102.949 53.552C103.434 53.8133 103.808 54.1913 104.069 54.686C104.302 54.2193 104.666 53.8507 105.161 53.58C105.656 53.3 106.188 53.16 106.757 53.16ZM119.036 56.954C119.036 57.2433 119.017 57.5047 118.98 57.738H113.086C113.133 58.354 113.361 58.8487 113.772 59.222C114.183 59.5953 114.687 59.782 115.284 59.782C116.143 59.782 116.749 59.4227 117.104 58.704H118.826C118.593 59.4133 118.168 59.9967 117.552 60.454C116.945 60.902 116.189 61.126 115.284 61.126C114.547 61.126 113.884 60.9627 113.296 60.636C112.717 60.3 112.26 59.8333 111.924 59.236C111.597 58.6293 111.434 57.9293 111.434 57.136C111.434 56.3427 111.593 55.6473 111.91 55.05C112.237 54.4433 112.689 53.9767 113.268 53.65C113.856 53.3233 114.528 53.16 115.284 53.16C116.012 53.16 116.661 53.3187 117.23 53.636C117.799 53.9533 118.243 54.4013 118.56 54.98C118.877 55.5493 119.036 56.2073 119.036 56.954ZM117.37 56.45C117.361 55.862 117.151 55.3907 116.74 55.036C116.329 54.6813 115.821 54.504 115.214 54.504C114.663 54.504 114.192 54.6813 113.8 55.036C113.408 55.3813 113.175 55.8527 113.1 56.45H117.37Z" fill="#101828"/>
<line x1="150" y1="27.5" x2="205" y2="27.5" stroke="#D0D5DD"/>
<rect x="213.5" y="16.5" width="23" height="23" rx="11.5" stroke="#D0D5DD"/>
<path d="M222.682 30.83C223.578 30.0553 224.283 29.4207 224.796 28.926C225.319 28.422 225.753 27.8993 226.098 27.358C226.443 26.8167 226.616 26.2753 226.616 25.734C226.616 25.174 226.481 24.7353 226.21 24.418C225.949 24.1007 225.533 23.942 224.964 23.942C224.413 23.942 223.984 24.1193 223.676 24.474C223.377 24.8193 223.219 25.286 223.2 25.874H221.66C221.688 24.81 222.005 23.998 222.612 23.438C223.228 22.8687 224.007 22.584 224.95 22.584C225.967 22.584 226.761 22.864 227.33 23.424C227.909 23.984 228.198 24.7307 228.198 25.664C228.198 26.336 228.025 26.9847 227.68 27.61C227.344 28.226 226.938 28.7813 226.462 29.276C225.995 29.7613 225.398 30.326 224.67 30.97L224.04 31.53H228.478V32.86H221.674V31.698L222.682 30.83Z" fill="#101828"/>
<line x1="245" y1="27.5" x2="300" y2="27.5" stroke="#D0D5DD"/>
<path d="M193.536 61.098C192.892 61.098 192.314 60.986 191.8 60.762C191.296 60.5287 190.9 60.2113 190.61 59.81C190.321 59.3993 190.172 58.928 190.162 58.396H191.52C191.567 58.8533 191.754 59.2407 192.08 59.558C192.416 59.866 192.902 60.02 193.536 60.02C194.143 60.02 194.619 59.8707 194.964 59.572C195.319 59.264 195.496 58.872 195.496 58.396C195.496 58.0227 195.394 57.7193 195.188 57.486C194.983 57.2527 194.726 57.0753 194.418 56.954C194.11 56.8327 193.695 56.702 193.172 56.562C192.528 56.394 192.01 56.226 191.618 56.058C191.236 55.89 190.904 55.6287 190.624 55.274C190.354 54.91 190.218 54.4247 190.218 53.818C190.218 53.286 190.354 52.8147 190.624 52.404C190.895 51.9933 191.273 51.676 191.758 51.452C192.253 51.228 192.818 51.116 193.452 51.116C194.367 51.116 195.114 51.3447 195.692 51.802C196.28 52.2593 196.612 52.866 196.686 53.622H195.286C195.24 53.2487 195.044 52.922 194.698 52.642C194.353 52.3527 193.896 52.208 193.326 52.208C192.794 52.208 192.36 52.348 192.024 52.628C191.688 52.8987 191.52 53.2813 191.52 53.776C191.52 54.1307 191.618 54.42 191.814 54.644C192.02 54.868 192.267 55.0407 192.556 55.162C192.855 55.274 193.27 55.4047 193.802 55.554C194.446 55.7313 194.964 55.9087 195.356 56.086C195.748 56.254 196.084 56.52 196.364 56.884C196.644 57.2387 196.784 57.724 196.784 58.34C196.784 58.816 196.658 59.264 196.406 59.684C196.154 60.104 195.781 60.4447 195.286 60.706C194.792 60.9673 194.208 61.098 193.536 61.098ZM200.213 54.378V58.9C200.213 59.2733 200.292 59.5393 200.451 59.698C200.61 59.8473 200.885 59.922 201.277 59.922H202.215V61H201.067C200.358 61 199.826 60.8367 199.471 60.51C199.116 60.1833 198.939 59.6467 198.939 58.9V54.378H197.945V53.328H198.939V51.396H200.213V53.328H202.215V54.378H200.213ZM205.033 54.574C205.257 54.1353 205.574 53.7947 205.985 53.552C206.405 53.3093 206.913 53.188 207.511 53.188V54.504H207.175C205.747 54.504 205.033 55.2787 205.033 56.828V61H203.759V53.328H205.033V54.574ZM215.785 53.328V61H214.511V59.866C214.269 60.258 213.928 60.566 213.489 60.79C213.06 61.0047 212.584 61.112 212.061 61.112C211.464 61.112 210.927 60.9907 210.451 60.748C209.975 60.496 209.597 60.1227 209.317 59.628C209.047 59.1333 208.911 58.5313 208.911 57.822V53.328H210.171V57.654C210.171 58.41 210.363 58.9933 210.745 59.404C211.128 59.8053 211.651 60.006 212.313 60.006C212.995 60.006 213.531 59.796 213.923 59.376C214.315 58.956 214.511 58.3447 214.511 57.542V53.328H215.785ZM217.46 57.15C217.46 56.3567 217.619 55.666 217.936 55.078C218.254 54.4807 218.692 54.0187 219.252 53.692C219.822 53.3653 220.47 53.202 221.198 53.202C222.141 53.202 222.916 53.4307 223.522 53.888C224.138 54.3453 224.544 54.98 224.74 55.792H223.368C223.238 55.3253 222.981 54.9567 222.598 54.686C222.225 54.4153 221.758 54.28 221.198 54.28C220.47 54.28 219.882 54.532 219.434 55.036C218.986 55.5307 218.762 56.2353 218.762 57.15C218.762 58.074 218.986 58.788 219.434 59.292C219.882 59.796 220.47 60.048 221.198 60.048C221.758 60.048 222.225 59.9173 222.598 59.656C222.972 59.3947 223.228 59.0213 223.368 58.536H224.74C224.535 59.32 224.124 59.95 223.508 60.426C222.892 60.8927 222.122 61.126 221.198 61.126C220.47 61.126 219.822 60.9627 219.252 60.636C218.692 60.3093 218.254 59.8473 217.936 59.25C217.619 58.6527 217.46 57.9527 217.46 57.15ZM227.994 54.378V58.9C227.994 59.2733 228.074 59.5393 228.232 59.698C228.391 59.8473 228.666 59.922 229.058 59.922H229.996V61H228.848C228.139 61 227.607 60.8367 227.252 60.51C226.898 60.1833 226.72 59.6467 226.72 58.9V54.378H225.726V53.328H226.72V51.396H227.994V53.328H229.996V54.378H227.994ZM238.344 53.328V61H237.07V59.866C236.827 60.258 236.487 60.566 236.048 60.79C235.619 61.0047 235.143 61.112 234.62 61.112C234.023 61.112 233.486 60.9907 233.01 60.748C232.534 60.496 232.156 60.1227 231.876 59.628C231.605 59.1333 231.47 58.5313 231.47 57.822V53.328H232.73V57.654C232.73 58.41 232.921 58.9933 233.304 59.404C233.687 59.8053 234.209 60.006 234.872 60.006C235.553 60.006 236.09 59.796 236.482 59.376C236.874 58.956 237.07 58.3447 237.07 57.542V53.328H238.344ZM241.769 54.574C241.993 54.1353 242.31 53.7947 242.721 53.552C243.141 53.3093 243.65 53.188 244.247 53.188V54.504H243.911C242.483 54.504 241.769 55.2787 241.769 56.828V61H240.495V53.328H241.769V54.574ZM252.718 56.87C252.718 57.1127 252.704 57.3693 252.676 57.64H246.544C246.59 58.396 246.847 58.9887 247.314 59.418C247.79 59.838 248.364 60.048 249.036 60.048C249.586 60.048 250.044 59.922 250.408 59.67C250.781 59.4087 251.042 59.0633 251.192 58.634H252.564C252.358 59.3713 251.948 59.9733 251.332 60.44C250.716 60.8973 249.95 61.126 249.036 61.126C248.308 61.126 247.654 60.9627 247.076 60.636C246.506 60.3093 246.058 59.8473 245.732 59.25C245.405 58.6433 245.242 57.9433 245.242 57.15C245.242 56.3567 245.4 55.6613 245.718 55.064C246.035 54.4667 246.478 54.0093 247.048 53.692C247.626 53.3653 248.289 53.202 249.036 53.202C249.764 53.202 250.408 53.3607 250.968 53.678C251.528 53.9953 251.957 54.434 252.256 54.994C252.564 55.5447 252.718 56.17 252.718 56.87ZM251.402 56.604C251.402 56.1187 251.294 55.7033 251.08 55.358C250.865 55.0033 250.571 54.7373 250.198 54.56C249.834 54.3733 249.428 54.28 248.98 54.28C248.336 54.28 247.785 54.4853 247.328 54.896C246.88 55.3067 246.623 55.876 246.558 56.604H251.402ZM257.115 61.126C256.527 61.126 256 61.028 255.533 60.832C255.067 60.6267 254.698 60.3467 254.427 59.992C254.157 59.628 254.007 59.2127 253.979 58.746H255.295C255.333 59.1287 255.51 59.4413 255.827 59.684C256.154 59.9267 256.579 60.048 257.101 60.048C257.587 60.048 257.969 59.9407 258.249 59.726C258.529 59.5113 258.669 59.2407 258.669 58.914C258.669 58.578 258.52 58.3307 258.221 58.172C257.923 58.004 257.461 57.8407 256.835 57.682C256.266 57.5327 255.799 57.3833 255.435 57.234C255.081 57.0753 254.773 56.8467 254.511 56.548C254.259 56.24 254.133 55.8387 254.133 55.344C254.133 54.952 254.25 54.5927 254.483 54.266C254.717 53.9393 255.048 53.6827 255.477 53.496C255.907 53.3 256.397 53.202 256.947 53.202C257.797 53.202 258.483 53.4167 259.005 53.846C259.528 54.2753 259.808 54.8633 259.845 55.61H258.571C258.543 55.2087 258.38 54.8867 258.081 54.644C257.792 54.4013 257.4 54.28 256.905 54.28C256.448 54.28 256.084 54.378 255.813 54.574C255.543 54.77 255.407 55.0267 255.407 55.344C255.407 55.596 255.487 55.806 255.645 55.974C255.813 56.1327 256.019 56.2633 256.261 56.366C256.513 56.4593 256.859 56.5667 257.297 56.688C257.848 56.8373 258.296 56.9867 258.641 57.136C258.987 57.276 259.281 57.4907 259.523 57.78C259.775 58.0693 259.906 58.4473 259.915 58.914C259.915 59.334 259.799 59.712 259.565 60.048C259.332 60.384 259.001 60.65 258.571 60.846C258.151 61.0327 257.666 61.126 257.115 61.126Z" fill="#475467"/>
<line x1="300" y1="27.5" x2="355" y2="27.5" stroke="#D0D5DD"/>
<rect x="363.5" y="16.5" width="23" height="23" rx="11.5" stroke="#D0D5DD"/>
<path d="M371.656 25.314C371.712 24.446 372.043 23.7693 372.65 23.284C373.266 22.7987 374.05 22.556 375.002 22.556C375.655 22.556 376.22 22.6727 376.696 22.906C377.172 23.1393 377.531 23.4567 377.774 23.858C378.016 24.2593 378.138 24.712 378.138 25.216C378.138 25.7947 377.984 26.2893 377.676 26.7C377.368 27.1107 376.999 27.386 376.57 27.526V27.582C377.12 27.75 377.55 28.058 377.858 28.506C378.166 28.9447 378.32 29.5093 378.32 30.2C378.32 30.7507 378.194 31.2407 377.942 31.67C377.69 32.0993 377.316 32.44 376.822 32.692C376.327 32.9347 375.734 33.056 375.044 33.056C374.036 33.056 373.205 32.7993 372.552 32.286C371.908 31.7633 371.562 31.0167 371.516 30.046H373.056C373.093 30.5407 373.284 30.9467 373.63 31.264C373.975 31.572 374.442 31.726 375.03 31.726C375.599 31.726 376.038 31.572 376.346 31.264C376.654 30.9467 376.808 30.5407 376.808 30.046C376.808 29.3927 376.598 28.9307 376.178 28.66C375.767 28.38 375.132 28.24 374.274 28.24H373.91V26.924H374.288C375.044 26.9147 375.618 26.7887 376.01 26.546C376.411 26.3033 376.612 25.9207 376.612 25.398C376.612 24.95 376.467 24.5953 376.178 24.334C375.888 24.0633 375.478 23.928 374.946 23.928C374.423 23.928 374.017 24.0633 373.728 24.334C373.438 24.5953 373.266 24.922 373.21 25.314H371.656Z" fill="#101828"/>
<line x1="395" y1="27.5" x2="450" y2="27.5" stroke="#D0D5DD"/>
<path d="M352.743 52.278V55.54H356.299V56.59H352.743V59.95H356.719V61H351.469V51.228H356.719V52.278H352.743ZM362.384 53.188C363.318 53.188 364.074 53.4727 364.652 54.042C365.231 54.602 365.52 55.414 365.52 56.478V61H364.26V56.66C364.26 55.8947 364.069 55.3113 363.686 54.91C363.304 54.4993 362.781 54.294 362.118 54.294C361.446 54.294 360.91 54.504 360.508 54.924C360.116 55.344 359.92 55.9553 359.92 56.758V61H358.646V53.328H359.92V54.42C360.172 54.028 360.513 53.7247 360.942 53.51C361.381 53.2953 361.862 53.188 362.384 53.188ZM369.155 54.378V58.9C369.155 59.2733 369.235 59.5393 369.393 59.698C369.552 59.8473 369.827 59.922 370.219 59.922H371.157V61H370.009C369.3 61 368.768 60.8367 368.413 60.51C368.059 60.1833 367.881 59.6467 367.881 58.9V54.378H366.887V53.328H367.881V51.396H369.155V53.328H371.157V54.378H369.155ZM373.359 52.082C373.116 52.082 372.911 51.998 372.743 51.83C372.575 51.662 372.491 51.4567 372.491 51.214C372.491 50.9713 372.575 50.766 372.743 50.598C372.911 50.43 373.116 50.346 373.359 50.346C373.592 50.346 373.788 50.43 373.947 50.598C374.115 50.766 374.199 50.9713 374.199 51.214C374.199 51.4567 374.115 51.662 373.947 51.83C373.788 51.998 373.592 52.082 373.359 52.082ZM373.975 53.328V61H372.701V53.328H373.975ZM377.7 54.378V58.9C377.7 59.2733 377.78 59.5393 377.938 59.698C378.097 59.8473 378.372 59.922 378.764 59.922H379.702V61H378.554C377.845 61 377.313 60.8367 376.958 60.51C376.604 60.1833 376.426 59.6467 376.426 58.9V54.378H375.432V53.328H376.426V51.396H377.7V53.328H379.702V54.378H377.7ZM381.904 52.082C381.661 52.082 381.456 51.998 381.288 51.83C381.12 51.662 381.036 51.4567 381.036 51.214C381.036 50.9713 381.12 50.766 381.288 50.598C381.456 50.43 381.661 50.346 381.904 50.346C382.137 50.346 382.333 50.43 382.492 50.598C382.66 50.766 382.744 50.9713 382.744 51.214C382.744 51.4567 382.66 51.662 382.492 51.83C382.333 51.998 382.137 52.082 381.904 52.082ZM382.52 53.328V61H381.246V53.328H382.52ZM391.691 56.87C391.691 57.1127 391.677 57.3693 391.649 57.64H385.517C385.564 58.396 385.821 58.9887 386.287 59.418C386.763 59.838 387.337 60.048 388.009 60.048C388.56 60.048 389.017 59.922 389.381 59.67C389.755 59.4087 390.016 59.0633 390.165 58.634H391.537C391.332 59.3713 390.921 59.9733 390.305 60.44C389.689 60.8973 388.924 61.126 388.009 61.126C387.281 61.126 386.628 60.9627 386.049 60.636C385.48 60.3093 385.032 59.8473 384.705 59.25C384.379 58.6433 384.215 57.9433 384.215 57.15C384.215 56.3567 384.374 55.6613 384.691 55.064C385.009 54.4667 385.452 54.0093 386.021 53.692C386.6 53.3653 387.263 53.202 388.009 53.202C388.737 53.202 389.381 53.3607 389.941 53.678C390.501 53.9953 390.931 54.434 391.229 54.994C391.537 55.5447 391.691 56.17 391.691 56.87ZM390.375 56.604C390.375 56.1187 390.268 55.7033 390.053 55.358C389.839 55.0033 389.545 54.7373 389.171 54.56C388.807 54.3733 388.401 54.28 387.953 54.28C387.309 54.28 386.759 54.4853 386.301 54.896C385.853 55.3067 385.597 55.876 385.531 56.604H390.375ZM396.089 61.126C395.501 61.126 394.974 61.028 394.507 60.832C394.04 60.6267 393.672 60.3467 393.401 59.992C393.13 59.628 392.981 59.2127 392.953 58.746H394.269C394.306 59.1287 394.484 59.4413 394.801 59.684C395.128 59.9267 395.552 60.048 396.075 60.048C396.56 60.048 396.943 59.9407 397.223 59.726C397.503 59.5113 397.643 59.2407 397.643 58.914C397.643 58.578 397.494 58.3307 397.195 58.172C396.896 58.004 396.434 57.8407 395.809 57.682C395.24 57.5327 394.773 57.3833 394.409 57.234C394.054 57.0753 393.746 56.8467 393.485 56.548C393.233 56.24 393.107 55.8387 393.107 55.344C393.107 54.952 393.224 54.5927 393.457 54.266C393.69 53.9393 394.022 53.6827 394.451 53.496C394.88 53.3 395.37 53.202 395.921 53.202C396.77 53.202 397.456 53.4167 397.979 53.846C398.502 54.2753 398.782 54.8633 398.819 55.61H397.545C397.517 55.2087 397.354 54.8867 397.055 54.644C396.766 54.4013 396.374 54.28 395.879 54.28C395.422 54.28 395.058 54.378 394.787 54.574C394.516 54.77 394.381 55.0267 394.381 55.344C394.381 55.596 394.46 55.806 394.619 55.974C394.787 56.1327 394.992 56.2633 395.235 56.366C395.487 56.4593 395.832 56.5667 396.271 56.688C396.822 56.8373 397.27 56.9867 397.615 57.136C397.96 57.276 398.254 57.4907 398.497 57.78C398.749 58.0693 398.88 58.4473 398.889 58.914C398.889 59.334 398.772 59.712 398.539 60.048C398.306 60.384 397.974 60.65 397.545 60.846C397.125 61.0327 396.64 61.126 396.089 61.126Z" fill="#475467"/>
<line x1="450" y1="27.5" x2="505" y2="27.5" stroke="#D0D5DD"/>
<rect x="513.5" y="16.5" width="23" height="23" rx="11.5" stroke="#D0D5DD"/>
<path d="M521.112 30.872V29.668L525.816 22.92H527.748V29.486H529.05V30.872H527.748V33H526.18V30.872H521.112ZM526.25 24.544L522.946 29.486H526.25V24.544Z" fill="#101828"/>
<path d="M503.054 51.312V61H501.78V53.776L498.56 61H497.664L494.43 53.762V61H493.156V51.312H494.528L498.112 59.32L501.696 51.312H503.054ZM512.215 56.87C512.215 57.1127 512.201 57.3693 512.173 57.64H506.041C506.087 58.396 506.344 58.9887 506.811 59.418C507.287 59.838 507.861 60.048 508.533 60.048C509.083 60.048 509.541 59.922 509.905 59.67C510.278 59.4087 510.539 59.0633 510.689 58.634H512.061C511.855 59.3713 511.445 59.9733 510.829 60.44C510.213 60.8973 509.447 61.126 508.533 61.126C507.805 61.126 507.151 60.9627 506.573 60.636C506.003 60.3093 505.555 59.8473 505.229 59.25C504.902 58.6433 504.739 57.9433 504.739 57.15C504.739 56.3567 504.897 55.6613 505.215 55.064C505.532 54.4667 505.975 54.0093 506.545 53.692C507.123 53.3653 507.786 53.202 508.533 53.202C509.261 53.202 509.905 53.3607 510.465 53.678C511.025 53.9953 511.454 54.434 511.753 54.994C512.061 55.5447 512.215 56.17 512.215 56.87ZM510.899 56.604C510.899 56.1187 510.791 55.7033 510.577 55.358C510.362 55.0033 510.068 54.7373 509.695 54.56C509.331 54.3733 508.925 54.28 508.477 54.28C507.833 54.28 507.282 54.4853 506.825 54.896C506.377 55.3067 506.12 55.876 506.055 56.604H510.899ZM523.122 53.188C523.72 53.188 524.252 53.314 524.718 53.566C525.185 53.8087 525.554 54.1773 525.824 54.672C526.095 55.1667 526.23 55.7687 526.23 56.478V61H524.97V56.66C524.97 55.8947 524.779 55.3113 524.396 54.91C524.023 54.4993 523.514 54.294 522.87 54.294C522.208 54.294 521.68 54.5087 521.288 54.938C520.896 55.358 520.7 55.9693 520.7 56.772V61H519.44V56.66C519.44 55.8947 519.249 55.3113 518.866 54.91C518.493 54.4993 517.984 54.294 517.34 54.294C516.678 54.294 516.15 54.5087 515.758 54.938C515.366 55.358 515.17 55.9693 515.17 56.772V61H513.896V53.328H515.17V54.434C515.422 54.0327 515.758 53.7247 516.178 53.51C516.608 53.2953 517.079 53.188 517.592 53.188C518.236 53.188 518.806 53.3327 519.3 53.622C519.795 53.9113 520.164 54.336 520.406 54.896C520.621 54.3547 520.976 53.9347 521.47 53.636C521.965 53.3373 522.516 53.188 523.122 53.188ZM529.594 54.756C529.856 54.2987 530.238 53.9253 530.742 53.636C531.246 53.3467 531.82 53.202 532.464 53.202C533.155 53.202 533.776 53.3653 534.326 53.692C534.877 54.0187 535.311 54.4807 535.628 55.078C535.946 55.666 536.104 56.352 536.104 57.136C536.104 57.9107 535.946 58.6013 535.628 59.208C535.311 59.8147 534.872 60.286 534.312 60.622C533.762 60.958 533.146 61.126 532.464 61.126C531.802 61.126 531.218 60.9813 530.714 60.692C530.22 60.4027 529.846 60.034 529.594 59.586V61H528.32V50.64H529.594V54.756ZM534.802 57.136C534.802 56.5573 534.686 56.0533 534.452 55.624C534.219 55.1947 533.902 54.868 533.5 54.644C533.108 54.42 532.674 54.308 532.198 54.308C531.732 54.308 531.298 54.4247 530.896 54.658C530.504 54.882 530.187 55.2133 529.944 55.652C529.711 56.0813 529.594 56.5807 529.594 57.15C529.594 57.7287 529.711 58.2373 529.944 58.676C530.187 59.1053 530.504 59.4367 530.896 59.67C531.298 59.894 531.732 60.006 532.198 60.006C532.674 60.006 533.108 59.894 533.5 59.67C533.902 59.4367 534.219 59.1053 534.452 58.676C534.686 58.2373 534.802 57.724 534.802 57.136ZM544.781 56.87C544.781 57.1127 544.767 57.3693 544.739 57.64H538.607C538.654 58.396 538.91 58.9887 539.377 59.418C539.853 59.838 540.427 60.048 541.099 60.048C541.65 60.048 542.107 59.922 542.471 59.67C542.844 59.4087 543.106 59.0633 543.255 58.634H544.627C544.422 59.3713 544.011 59.9733 543.395 60.44C542.779 60.8973 542.014 61.126 541.099 61.126C540.371 61.126 539.718 60.9627 539.139 60.636C538.57 60.3093 538.122 59.8473 537.795 59.25C537.468 58.6433 537.305 57.9433 537.305 57.15C537.305 56.3567 537.464 55.6613 537.781 55.064C538.098 54.4667 538.542 54.0093 539.111 53.692C539.69 53.3653 540.352 53.202 541.099 53.202C541.827 53.202 542.471 53.3607 543.031 53.678C543.591 53.9953 544.02 54.434 544.319 54.994C544.627 55.5447 544.781 56.17 544.781 56.87ZM543.465 56.604C543.465 56.1187 543.358 55.7033 543.143 55.358C542.928 55.0033 542.634 54.7373 542.261 54.56C541.897 54.3733 541.491 54.28 541.043 54.28C540.399 54.28 539.848 54.4853 539.391 54.896C538.943 55.3067 538.686 55.876 538.621 56.604H543.465ZM547.737 54.574C547.961 54.1353 548.278 53.7947 548.689 53.552C549.109 53.3093 549.617 53.188 550.215 53.188V54.504H549.879C548.451 54.504 547.737 55.2787 547.737 56.828V61H546.463V53.328H547.737V54.574ZM554.401 61.126C553.813 61.126 553.286 61.028 552.819 60.832C552.353 60.6267 551.984 60.3467 551.713 59.992C551.443 59.628 551.293 59.2127 551.265 58.746H552.581C552.619 59.1287 552.796 59.4413 553.113 59.684C553.44 59.9267 553.865 60.048 554.387 60.048C554.873 60.048 555.255 59.9407 555.535 59.726C555.815 59.5113 555.955 59.2407 555.955 58.914C555.955 58.578 555.806 58.3307 555.507 58.172C555.209 58.004 554.747 57.8407 554.121 57.682C553.552 57.5327 553.085 57.3833 552.721 57.234C552.367 57.0753 552.059 56.8467 551.797 56.548C551.545 56.24 551.419 55.8387 551.419 55.344C551.419 54.952 551.536 54.5927 551.769 54.266C552.003 53.9393 552.334 53.6827 552.763 53.496C553.193 53.3 553.683 53.202 554.233 53.202C555.083 53.202 555.769 53.4167 556.291 53.846C556.814 54.2753 557.094 54.8633 557.131 55.61H555.857C555.829 55.2087 555.666 54.8867 555.367 54.644C555.078 54.4013 554.686 54.28 554.191 54.28C553.734 54.28 553.37 54.378 553.099 54.574C552.829 54.77 552.693 55.0267 552.693 55.344C552.693 55.596 552.773 55.806 552.931 55.974C553.099 56.1327 553.305 56.2633 553.547 56.366C553.799 56.4593 554.145 56.5667 554.583 56.688C555.134 56.8373 555.582 56.9867 555.927 57.136C556.273 57.276 556.567 57.4907 556.809 57.78C557.061 58.0693 557.192 58.4473 557.201 58.914C557.201 59.334 557.085 59.712 556.851 60.048C556.618 60.384 556.287 60.65 555.857 60.846C555.437 61.0327 554.952 61.126 554.401 61.126Z" fill="#475467"/>
</svg>
