<svg width="616" height="82" viewBox="0 0 616 82" fill="none" xmlns="http://www.w3.org/2000/svg">
<path d="M616 81H0V83H616V81Z" fill="#EAECF0" mask="url(#path-1-inside-1_50_6143)"/>
<rect x="65" y="16" width="24" height="24" rx="12" fill="#DBEEFB"/>
<path fill-rule="evenodd" clip-rule="evenodd" d="M82.0964 23.39L74.9364 30.3L73.0364 28.27C72.6864 27.94 72.1364 27.92 71.7364 28.2C71.3464 28.49 71.2364 29 71.4764 29.41L73.7264 33.07C73.9464 33.41 74.3264 33.62 74.7564 33.62C75.1664 33.62 75.5564 33.41 75.7764 33.07C76.1364 32.6 83.0064 24.41 83.0064 24.41C83.9064 23.49 82.8164 22.68 82.0964 23.38V23.39Z" fill="#146AA3"/>
<line x1="97" y1="27.5" x2="154" y2="27.5" stroke="#D0D5DD"/>
<path d="M41.0979 54.07C40.8273 53.5007 40.4353 53.062 39.9219 52.754C39.4086 52.4367 38.8113 52.278 38.1299 52.278C37.4486 52.278 36.8326 52.4367 36.2819 52.754C35.7406 53.062 35.3113 53.51 34.9939 54.098C34.6859 54.6767 34.5319 55.3487 34.5319 56.114C34.5319 56.8793 34.6859 57.5513 34.9939 58.13C35.3113 58.7087 35.7406 59.1567 36.2819 59.474C36.8326 59.782 37.4486 59.936 38.1299 59.936C39.0819 59.936 39.8659 59.6513 40.4819 59.082C41.0979 58.5127 41.4573 57.7427 41.5599 56.772H37.6679V55.736H42.9179V56.716C42.8433 57.5187 42.5913 58.256 42.1619 58.928C41.7326 59.5907 41.1679 60.118 40.4679 60.51C39.7679 60.8927 38.9886 61.084 38.1299 61.084C37.2246 61.084 36.3986 60.874 35.6519 60.454C34.9053 60.0247 34.3126 59.432 33.8739 58.676C33.4446 57.92 33.2299 57.066 33.2299 56.114C33.2299 55.162 33.4446 54.308 33.8739 53.552C34.3126 52.7867 34.9053 52.194 35.6519 51.774C36.3986 51.3447 37.2246 51.13 38.1299 51.13C39.1659 51.13 40.0806 51.3867 40.8739 51.9C41.6766 52.4133 42.2599 53.1367 42.6239 54.07H41.0979ZM45.8764 54.574C46.1004 54.1353 46.4177 53.7947 46.8284 53.552C47.2484 53.3093 47.7571 53.188 48.3544 53.188V54.504H48.0184C46.5904 54.504 45.8764 55.2787 45.8764 56.828V61H44.6024V53.328H45.8764V54.574ZM53.1711 61.126C52.4524 61.126 51.7991 60.9627 51.2111 60.636C50.6324 60.3093 50.1751 59.8473 49.8391 59.25C49.5124 58.6433 49.3491 57.9433 49.3491 57.15C49.3491 56.366 49.5171 55.6753 49.8531 55.078C50.1984 54.4713 50.6651 54.0093 51.2531 53.692C51.8411 53.3653 52.4991 53.202 53.2271 53.202C53.9551 53.202 54.6131 53.3653 55.2011 53.692C55.7891 54.0093 56.2511 54.4667 56.5871 55.064C56.9324 55.6613 57.1051 56.3567 57.1051 57.15C57.1051 57.9433 56.9277 58.6433 56.5731 59.25C56.2277 59.8473 55.7564 60.3093 55.1591 60.636C54.5617 60.9627 53.8991 61.126 53.1711 61.126ZM53.1711 60.006C53.6284 60.006 54.0577 59.8987 54.4591 59.684C54.8604 59.4693 55.1824 59.1473 55.4251 58.718C55.6771 58.2887 55.8031 57.766 55.8031 57.15C55.8031 56.534 55.6817 56.0113 55.4391 55.582C55.1964 55.1527 54.8791 54.8353 54.4871 54.63C54.0951 54.4153 53.6704 54.308 53.2131 54.308C52.7464 54.308 52.3171 54.4153 51.9251 54.63C51.5424 54.8353 51.2344 55.1527 51.0011 55.582C50.7677 56.0113 50.6511 56.534 50.6511 57.15C50.6511 57.7753 50.7631 58.3027 50.9871 58.732C51.2204 59.1613 51.5284 59.4833 51.9111 59.698C52.2937 59.9033 52.7137 60.006 53.1711 60.006ZM65.5841 53.328V61H64.3101V59.866C64.0675 60.258 63.7268 60.566 63.2881 60.79C62.8588 61.0047 62.3828 61.112 61.8601 61.112C61.2628 61.112 60.7261 60.9907 60.2501 60.748C59.7741 60.496 59.3961 60.1227 59.1161 59.628C58.8455 59.1333 58.7101 58.5313 58.7101 57.822V53.328H59.9701V57.654C59.9701 58.41 60.1615 58.9933 60.5441 59.404C60.9268 59.8053 61.4495 60.006 62.1121 60.006C62.7935 60.006 63.3301 59.796 63.7221 59.376C64.1141 58.956 64.3101 58.3447 64.3101 57.542V53.328H65.5841ZM69.0092 54.742C69.2612 54.3033 69.6346 53.9393 70.1292 53.65C70.6332 53.3513 71.2166 53.202 71.8792 53.202C72.5606 53.202 73.1766 53.3653 73.7272 53.692C74.2872 54.0187 74.7259 54.4807 75.0432 55.078C75.3606 55.666 75.5192 56.352 75.5192 57.136C75.5192 57.9107 75.3606 58.6013 75.0432 59.208C74.7259 59.8147 74.2872 60.286 73.7272 60.622C73.1766 60.958 72.5606 61.126 71.8792 61.126C71.2259 61.126 70.6472 60.9813 70.1432 60.692C69.6486 60.3933 69.2706 60.0247 69.0092 59.586V64.64H67.7352V53.328H69.0092V54.742ZM74.2172 57.136C74.2172 56.5573 74.1006 56.0533 73.8672 55.624C73.6339 55.1947 73.3166 54.868 72.9152 54.644C72.5232 54.42 72.0892 54.308 71.6132 54.308C71.1466 54.308 70.7126 54.4247 70.3112 54.658C69.9192 54.882 69.6019 55.2133 69.3592 55.652C69.1259 56.0813 69.0092 56.5807 69.0092 57.15C69.0092 57.7287 69.1259 58.2373 69.3592 58.676C69.6019 59.1053 69.9192 59.4367 70.3112 59.67C70.7126 59.894 71.1466 60.006 71.6132 60.006C72.0892 60.006 72.5232 59.894 72.9152 59.67C73.3166 59.4367 73.6339 59.1053 73.8672 58.676C74.1006 58.2373 74.2172 57.724 74.2172 57.136ZM84.6666 53.188C85.5999 53.188 86.3559 53.4727 86.9346 54.042C87.5133 54.602 87.8026 55.414 87.8026 56.478V61H86.5426V56.66C86.5426 55.8947 86.3513 55.3113 85.9686 54.91C85.5859 54.4993 85.0633 54.294 84.4006 54.294C83.7286 54.294 83.1919 54.504 82.7906 54.924C82.3986 55.344 82.2026 55.9553 82.2026 56.758V61H80.9286V53.328H82.2026V54.42C82.4546 54.028 82.7953 53.7247 83.2246 53.51C83.6633 53.2953 84.1439 53.188 84.6666 53.188ZM89.4077 57.136C89.4077 56.352 89.5663 55.666 89.8837 55.078C90.201 54.4807 90.635 54.0187 91.1857 53.692C91.7457 53.3653 92.3663 53.202 93.0477 53.202C93.7197 53.202 94.303 53.3467 94.7977 53.636C95.2923 53.9253 95.661 54.2893 95.9037 54.728V53.328H97.1917V61H95.9037V59.572C95.6517 60.02 95.2737 60.3933 94.7697 60.692C94.275 60.9813 93.6963 61.126 93.0337 61.126C92.3523 61.126 91.7363 60.958 91.1857 60.622C90.635 60.286 90.201 59.8147 89.8837 59.208C89.5663 58.6013 89.4077 57.9107 89.4077 57.136ZM95.9037 57.15C95.9037 56.5713 95.787 56.0673 95.5537 55.638C95.3203 55.2087 95.003 54.882 94.6017 54.658C94.2097 54.4247 93.7757 54.308 93.2997 54.308C92.8237 54.308 92.3897 54.42 91.9977 54.644C91.6057 54.868 91.293 55.1947 91.0597 55.624C90.8263 56.0533 90.7097 56.5573 90.7097 57.136C90.7097 57.724 90.8263 58.2373 91.0597 58.676C91.293 59.1053 91.6057 59.4367 91.9977 59.67C92.3897 59.894 92.8237 60.006 93.2997 60.006C93.7757 60.006 94.2097 59.894 94.6017 59.67C95.003 59.4367 95.3203 59.1053 95.5537 58.676C95.787 58.2373 95.9037 57.7287 95.9037 57.15ZM108.571 53.188C109.168 53.188 109.7 53.314 110.167 53.566C110.633 53.8087 111.002 54.1773 111.273 54.672C111.543 55.1667 111.679 55.7687 111.679 56.478V61H110.419V56.66C110.419 55.8947 110.227 55.3113 109.845 54.91C109.471 54.4993 108.963 54.294 108.319 54.294C107.656 54.294 107.129 54.5087 106.737 54.938C106.345 55.358 106.149 55.9693 106.149 56.772V61H104.889V56.66C104.889 55.8947 104.697 55.3113 104.315 54.91C103.941 54.4993 103.433 54.294 102.789 54.294C102.126 54.294 101.599 54.5087 101.207 54.938C100.815 55.358 100.619 55.9693 100.619 56.772V61H99.3446V53.328H100.619V54.434C100.871 54.0327 101.207 53.7247 101.627 53.51C102.056 53.2953 102.527 53.188 103.041 53.188C103.685 53.188 104.254 53.3327 104.749 53.622C105.243 53.9113 105.612 54.336 105.855 54.896C106.069 54.3547 106.424 53.9347 106.919 53.636C107.413 53.3373 107.964 53.188 108.571 53.188ZM120.768 56.87C120.768 57.1127 120.754 57.3693 120.726 57.64H114.594C114.641 58.396 114.898 58.9887 115.364 59.418C115.84 59.838 116.414 60.048 117.086 60.048C117.637 60.048 118.094 59.922 118.458 59.67C118.832 59.4087 119.093 59.0633 119.242 58.634H120.614C120.409 59.3713 119.998 59.9733 119.382 60.44C118.766 60.8973 118.001 61.126 117.086 61.126C116.358 61.126 115.705 60.9627 115.126 60.636C114.557 60.3093 114.109 59.8473 113.782 59.25C113.456 58.6433 113.292 57.9433 113.292 57.15C113.292 56.3567 113.451 55.6613 113.768 55.064C114.086 54.4667 114.529 54.0093 115.098 53.692C115.677 53.3653 116.34 53.202 117.086 53.202C117.814 53.202 118.458 53.3607 119.018 53.678C119.578 53.9953 120.008 54.434 120.306 54.994C120.614 55.5447 120.768 56.17 120.768 56.87ZM119.452 56.604C119.452 56.1187 119.345 55.7033 119.13 55.358C118.916 55.0033 118.622 54.7373 118.248 54.56C117.884 54.3733 117.478 54.28 117.03 54.28C116.386 54.28 115.836 54.4853 115.378 54.896C114.93 55.3067 114.674 55.876 114.608 56.604H119.452Z" fill="#475467"/>
<line x1="154" y1="27.5" x2="211" y2="27.5" stroke="#D0D5DD"/>
<rect x="219" y="16" width="24" height="24" rx="12" fill="#DBEEFB"/>
<path fill-rule="evenodd" clip-rule="evenodd" d="M236.097 23.39L228.937 30.3L227.037 28.27C226.687 27.94 226.137 27.92 225.737 28.2C225.347 28.49 225.237 29 225.477 29.41L227.727 33.07C227.947 33.41 228.327 33.62 228.757 33.62C229.167 33.62 229.557 33.41 229.777 33.07C230.137 32.6 237.007 24.41 237.007 24.41C237.907 23.49 236.817 22.68 236.097 23.38V23.39Z" fill="#146AA3"/>
<line x1="251" y1="27.5" x2="308" y2="27.5" stroke="#D0D5DD"/>
<path d="M199.536 61.098C198.892 61.098 198.314 60.986 197.8 60.762C197.296 60.5287 196.9 60.2113 196.61 59.81C196.321 59.3993 196.172 58.928 196.162 58.396H197.52C197.567 58.8533 197.754 59.2407 198.08 59.558C198.416 59.866 198.902 60.02 199.536 60.02C200.143 60.02 200.619 59.8707 200.964 59.572C201.319 59.264 201.496 58.872 201.496 58.396C201.496 58.0227 201.394 57.7193 201.188 57.486C200.983 57.2527 200.726 57.0753 200.418 56.954C200.11 56.8327 199.695 56.702 199.172 56.562C198.528 56.394 198.01 56.226 197.618 56.058C197.236 55.89 196.904 55.6287 196.624 55.274C196.354 54.91 196.218 54.4247 196.218 53.818C196.218 53.286 196.354 52.8147 196.624 52.404C196.895 51.9933 197.273 51.676 197.758 51.452C198.253 51.228 198.818 51.116 199.452 51.116C200.367 51.116 201.114 51.3447 201.692 51.802C202.28 52.2593 202.612 52.866 202.686 53.622H201.286C201.24 53.2487 201.044 52.922 200.698 52.642C200.353 52.3527 199.896 52.208 199.326 52.208C198.794 52.208 198.36 52.348 198.024 52.628C197.688 52.8987 197.52 53.2813 197.52 53.776C197.52 54.1307 197.618 54.42 197.814 54.644C198.02 54.868 198.267 55.0407 198.556 55.162C198.855 55.274 199.27 55.4047 199.802 55.554C200.446 55.7313 200.964 55.9087 201.356 56.086C201.748 56.254 202.084 56.52 202.364 56.884C202.644 57.2387 202.784 57.724 202.784 58.34C202.784 58.816 202.658 59.264 202.406 59.684C202.154 60.104 201.781 60.4447 201.286 60.706C200.792 60.9673 200.208 61.098 199.536 61.098ZM206.213 54.378V58.9C206.213 59.2733 206.292 59.5393 206.451 59.698C206.61 59.8473 206.885 59.922 207.277 59.922H208.215V61H207.067C206.358 61 205.826 60.8367 205.471 60.51C205.116 60.1833 204.939 59.6467 204.939 58.9V54.378H203.945V53.328H204.939V51.396H206.213V53.328H208.215V54.378H206.213ZM211.033 54.574C211.257 54.1353 211.574 53.7947 211.985 53.552C212.405 53.3093 212.913 53.188 213.511 53.188V54.504H213.175C211.747 54.504 211.033 55.2787 211.033 56.828V61H209.759V53.328H211.033V54.574ZM221.785 53.328V61H220.511V59.866C220.269 60.258 219.928 60.566 219.489 60.79C219.06 61.0047 218.584 61.112 218.061 61.112C217.464 61.112 216.927 60.9907 216.451 60.748C215.975 60.496 215.597 60.1227 215.317 59.628C215.047 59.1333 214.911 58.5313 214.911 57.822V53.328H216.171V57.654C216.171 58.41 216.363 58.9933 216.745 59.404C217.128 59.8053 217.651 60.006 218.313 60.006C218.995 60.006 219.531 59.796 219.923 59.376C220.315 58.956 220.511 58.3447 220.511 57.542V53.328H221.785ZM223.46 57.15C223.46 56.3567 223.619 55.666 223.936 55.078C224.254 54.4807 224.692 54.0187 225.252 53.692C225.822 53.3653 226.47 53.202 227.198 53.202C228.141 53.202 228.916 53.4307 229.522 53.888C230.138 54.3453 230.544 54.98 230.74 55.792H229.368C229.238 55.3253 228.981 54.9567 228.598 54.686C228.225 54.4153 227.758 54.28 227.198 54.28C226.47 54.28 225.882 54.532 225.434 55.036C224.986 55.5307 224.762 56.2353 224.762 57.15C224.762 58.074 224.986 58.788 225.434 59.292C225.882 59.796 226.47 60.048 227.198 60.048C227.758 60.048 228.225 59.9173 228.598 59.656C228.972 59.3947 229.228 59.0213 229.368 58.536H230.74C230.535 59.32 230.124 59.95 229.508 60.426C228.892 60.8927 228.122 61.126 227.198 61.126C226.47 61.126 225.822 60.9627 225.252 60.636C224.692 60.3093 224.254 59.8473 223.936 59.25C223.619 58.6527 223.46 57.9527 223.46 57.15ZM233.994 54.378V58.9C233.994 59.2733 234.074 59.5393 234.232 59.698C234.391 59.8473 234.666 59.922 235.058 59.922H235.996V61H234.848C234.139 61 233.607 60.8367 233.252 60.51C232.898 60.1833 232.72 59.6467 232.72 58.9V54.378H231.726V53.328H232.72V51.396H233.994V53.328H235.996V54.378H233.994ZM244.344 53.328V61H243.07V59.866C242.827 60.258 242.487 60.566 242.048 60.79C241.619 61.0047 241.143 61.112 240.62 61.112C240.023 61.112 239.486 60.9907 239.01 60.748C238.534 60.496 238.156 60.1227 237.876 59.628C237.605 59.1333 237.47 58.5313 237.47 57.822V53.328H238.73V57.654C238.73 58.41 238.921 58.9933 239.304 59.404C239.687 59.8053 240.209 60.006 240.872 60.006C241.553 60.006 242.09 59.796 242.482 59.376C242.874 58.956 243.07 58.3447 243.07 57.542V53.328H244.344ZM247.769 54.574C247.993 54.1353 248.31 53.7947 248.721 53.552C249.141 53.3093 249.65 53.188 250.247 53.188V54.504H249.911C248.483 54.504 247.769 55.2787 247.769 56.828V61H246.495V53.328H247.769V54.574ZM258.718 56.87C258.718 57.1127 258.704 57.3693 258.676 57.64H252.544C252.59 58.396 252.847 58.9887 253.314 59.418C253.79 59.838 254.364 60.048 255.036 60.048C255.586 60.048 256.044 59.922 256.408 59.67C256.781 59.4087 257.042 59.0633 257.192 58.634H258.564C258.358 59.3713 257.948 59.9733 257.332 60.44C256.716 60.8973 255.95 61.126 255.036 61.126C254.308 61.126 253.654 60.9627 253.076 60.636C252.506 60.3093 252.058 59.8473 251.732 59.25C251.405 58.6433 251.242 57.9433 251.242 57.15C251.242 56.3567 251.4 55.6613 251.718 55.064C252.035 54.4667 252.478 54.0093 253.048 53.692C253.626 53.3653 254.289 53.202 255.036 53.202C255.764 53.202 256.408 53.3607 256.968 53.678C257.528 53.9953 257.957 54.434 258.256 54.994C258.564 55.5447 258.718 56.17 258.718 56.87ZM257.402 56.604C257.402 56.1187 257.294 55.7033 257.08 55.358C256.865 55.0033 256.571 54.7373 256.198 54.56C255.834 54.3733 255.428 54.28 254.98 54.28C254.336 54.28 253.785 54.4853 253.328 54.896C252.88 55.3067 252.623 55.876 252.558 56.604H257.402ZM263.115 61.126C262.527 61.126 262 61.028 261.533 60.832C261.067 60.6267 260.698 60.3467 260.427 59.992C260.157 59.628 260.007 59.2127 259.979 58.746H261.295C261.333 59.1287 261.51 59.4413 261.827 59.684C262.154 59.9267 262.579 60.048 263.101 60.048C263.587 60.048 263.969 59.9407 264.249 59.726C264.529 59.5113 264.669 59.2407 264.669 58.914C264.669 58.578 264.52 58.3307 264.221 58.172C263.923 58.004 263.461 57.8407 262.835 57.682C262.266 57.5327 261.799 57.3833 261.435 57.234C261.081 57.0753 260.773 56.8467 260.511 56.548C260.259 56.24 260.133 55.8387 260.133 55.344C260.133 54.952 260.25 54.5927 260.483 54.266C260.717 53.9393 261.048 53.6827 261.477 53.496C261.907 53.3 262.397 53.202 262.947 53.202C263.797 53.202 264.483 53.4167 265.005 53.846C265.528 54.2753 265.808 54.8633 265.845 55.61H264.571C264.543 55.2087 264.38 54.8867 264.081 54.644C263.792 54.4013 263.4 54.28 262.905 54.28C262.448 54.28 262.084 54.378 261.813 54.574C261.543 54.77 261.407 55.0267 261.407 55.344C261.407 55.596 261.487 55.806 261.645 55.974C261.813 56.1327 262.019 56.2633 262.261 56.366C262.513 56.4593 262.859 56.5667 263.297 56.688C263.848 56.8373 264.296 56.9867 264.641 57.136C264.987 57.276 265.281 57.4907 265.523 57.78C265.775 58.0693 265.906 58.4473 265.915 58.914C265.915 59.334 265.799 59.712 265.565 60.048C265.332 60.384 265.001 60.65 264.571 60.846C264.151 61.0327 263.666 61.126 263.115 61.126Z" fill="#475467"/>
<line x1="308" y1="27.5" x2="365" y2="27.5" stroke="#D0D5DD"/>
<rect x="373" y="16" width="24" height="24" rx="12" fill="#DBEEFB"/>
<path fill-rule="evenodd" clip-rule="evenodd" d="M390.097 23.39L382.937 30.3L381.037 28.27C380.687 27.94 380.137 27.92 379.737 28.2C379.347 28.49 379.237 29 379.477 29.41L381.727 33.07C381.947 33.41 382.327 33.62 382.757 33.62C383.167 33.62 383.557 33.41 383.777 33.07C384.137 32.6 391.007 24.41 391.007 24.41C391.907 23.49 390.817 22.68 390.097 23.38V23.39Z" fill="#146AA3"/>
<line x1="405" y1="27.5" x2="462" y2="27.5" stroke="#D0D5DD"/>
<path d="M362.743 52.278V55.54H366.299V56.59H362.743V59.95H366.719V61H361.469V51.228H366.719V52.278H362.743ZM372.384 53.188C373.318 53.188 374.074 53.4727 374.652 54.042C375.231 54.602 375.52 55.414 375.52 56.478V61H374.26V56.66C374.26 55.8947 374.069 55.3113 373.686 54.91C373.304 54.4993 372.781 54.294 372.118 54.294C371.446 54.294 370.91 54.504 370.508 54.924C370.116 55.344 369.92 55.9553 369.92 56.758V61H368.646V53.328H369.92V54.42C370.172 54.028 370.513 53.7247 370.942 53.51C371.381 53.2953 371.862 53.188 372.384 53.188ZM379.155 54.378V58.9C379.155 59.2733 379.235 59.5393 379.393 59.698C379.552 59.8473 379.827 59.922 380.219 59.922H381.157V61H380.009C379.3 61 378.768 60.8367 378.413 60.51C378.059 60.1833 377.881 59.6467 377.881 58.9V54.378H376.887V53.328H377.881V51.396H379.155V53.328H381.157V54.378H379.155ZM383.359 52.082C383.116 52.082 382.911 51.998 382.743 51.83C382.575 51.662 382.491 51.4567 382.491 51.214C382.491 50.9713 382.575 50.766 382.743 50.598C382.911 50.43 383.116 50.346 383.359 50.346C383.592 50.346 383.788 50.43 383.947 50.598C384.115 50.766 384.199 50.9713 384.199 51.214C384.199 51.4567 384.115 51.662 383.947 51.83C383.788 51.998 383.592 52.082 383.359 52.082ZM383.975 53.328V61H382.701V53.328H383.975ZM387.7 54.378V58.9C387.7 59.2733 387.78 59.5393 387.938 59.698C388.097 59.8473 388.372 59.922 388.764 59.922H389.702V61H388.554C387.845 61 387.313 60.8367 386.958 60.51C386.604 60.1833 386.426 59.6467 386.426 58.9V54.378H385.432V53.328H386.426V51.396H387.7V53.328H389.702V54.378H387.7ZM391.904 52.082C391.661 52.082 391.456 51.998 391.288 51.83C391.12 51.662 391.036 51.4567 391.036 51.214C391.036 50.9713 391.12 50.766 391.288 50.598C391.456 50.43 391.661 50.346 391.904 50.346C392.137 50.346 392.333 50.43 392.492 50.598C392.66 50.766 392.744 50.9713 392.744 51.214C392.744 51.4567 392.66 51.662 392.492 51.83C392.333 51.998 392.137 52.082 391.904 52.082ZM392.52 53.328V61H391.246V53.328H392.52ZM401.691 56.87C401.691 57.1127 401.677 57.3693 401.649 57.64H395.517C395.564 58.396 395.821 58.9887 396.287 59.418C396.763 59.838 397.337 60.048 398.009 60.048C398.56 60.048 399.017 59.922 399.381 59.67C399.755 59.4087 400.016 59.0633 400.165 58.634H401.537C401.332 59.3713 400.921 59.9733 400.305 60.44C399.689 60.8973 398.924 61.126 398.009 61.126C397.281 61.126 396.628 60.9627 396.049 60.636C395.48 60.3093 395.032 59.8473 394.705 59.25C394.379 58.6433 394.215 57.9433 394.215 57.15C394.215 56.3567 394.374 55.6613 394.691 55.064C395.009 54.4667 395.452 54.0093 396.021 53.692C396.6 53.3653 397.263 53.202 398.009 53.202C398.737 53.202 399.381 53.3607 399.941 53.678C400.501 53.9953 400.931 54.434 401.229 54.994C401.537 55.5447 401.691 56.17 401.691 56.87ZM400.375 56.604C400.375 56.1187 400.268 55.7033 400.053 55.358C399.839 55.0033 399.545 54.7373 399.171 54.56C398.807 54.3733 398.401 54.28 397.953 54.28C397.309 54.28 396.759 54.4853 396.301 54.896C395.853 55.3067 395.597 55.876 395.531 56.604H400.375ZM406.089 61.126C405.501 61.126 404.974 61.028 404.507 60.832C404.04 60.6267 403.672 60.3467 403.401 59.992C403.13 59.628 402.981 59.2127 402.953 58.746H404.269C404.306 59.1287 404.484 59.4413 404.801 59.684C405.128 59.9267 405.552 60.048 406.075 60.048C406.56 60.048 406.943 59.9407 407.223 59.726C407.503 59.5113 407.643 59.2407 407.643 58.914C407.643 58.578 407.494 58.3307 407.195 58.172C406.896 58.004 406.434 57.8407 405.809 57.682C405.24 57.5327 404.773 57.3833 404.409 57.234C404.054 57.0753 403.746 56.8467 403.485 56.548C403.233 56.24 403.107 55.8387 403.107 55.344C403.107 54.952 403.224 54.5927 403.457 54.266C403.69 53.9393 404.022 53.6827 404.451 53.496C404.88 53.3 405.37 53.202 405.921 53.202C406.77 53.202 407.456 53.4167 407.979 53.846C408.502 54.2753 408.782 54.8633 408.819 55.61H407.545C407.517 55.2087 407.354 54.8867 407.055 54.644C406.766 54.4013 406.374 54.28 405.879 54.28C405.422 54.28 405.058 54.378 404.787 54.574C404.516 54.77 404.381 55.0267 404.381 55.344C404.381 55.596 404.46 55.806 404.619 55.974C404.787 56.1327 404.992 56.2633 405.235 56.366C405.487 56.4593 405.832 56.5667 406.271 56.688C406.822 56.8373 407.27 56.9867 407.615 57.136C407.96 57.276 408.254 57.4907 408.497 57.78C408.749 58.0693 408.88 58.4473 408.889 58.914C408.889 59.334 408.772 59.712 408.539 60.048C408.306 60.384 407.974 60.65 407.545 60.846C407.125 61.0327 406.64 61.126 406.089 61.126Z" fill="#475467"/>
<line x1="462" y1="27.5" x2="519" y2="27.5" stroke="#D0D5DD"/>
<rect x="527" y="16" width="24" height="24" rx="12" fill="#101828"/>
<path d="M535.03 31.012V29.472L539.608 22.92H541.89V29.304H543.122V31.012H541.89V33H539.93V31.012H535.03ZM540.056 25.02L537.186 29.304H540.056V25.02Z" fill="white"/>
<path d="M517.041 51.27V61H515.445V54.336L512.477 61H511.371L508.389 54.336V61H506.793V51.27H508.515L511.931 58.9L515.333 51.27H517.041ZM526.209 56.954C526.209 57.2433 526.19 57.5047 526.153 57.738H520.259C520.306 58.354 520.534 58.8487 520.945 59.222C521.356 59.5953 521.86 59.782 522.457 59.782C523.316 59.782 523.922 59.4227 524.277 58.704H525.999C525.766 59.4133 525.341 59.9967 524.725 60.454C524.118 60.902 523.362 61.126 522.457 61.126C521.72 61.126 521.057 60.9627 520.469 60.636C519.89 60.3 519.433 59.8333 519.097 59.236C518.77 58.6293 518.607 57.9293 518.607 57.136C518.607 56.3427 518.766 55.6473 519.083 55.05C519.41 54.4433 519.862 53.9767 520.441 53.65C521.029 53.3233 521.701 53.16 522.457 53.16C523.185 53.16 523.834 53.3187 524.403 53.636C524.972 53.9533 525.416 54.4013 525.733 54.98C526.05 55.5493 526.209 56.2073 526.209 56.954ZM524.543 56.45C524.534 55.862 524.324 55.3907 523.913 55.036C523.502 54.6813 522.994 54.504 522.387 54.504C521.836 54.504 521.365 54.6813 520.973 55.036C520.581 55.3813 520.348 55.8527 520.273 56.45H524.543ZM537.117 53.16C537.724 53.16 538.265 53.286 538.741 53.538C539.227 53.79 539.605 54.1633 539.875 54.658C540.155 55.1527 540.295 55.75 540.295 56.45V61H538.713V56.688C538.713 55.9973 538.541 55.47 538.195 55.106C537.85 54.7327 537.379 54.546 536.781 54.546C536.184 54.546 535.708 54.7327 535.353 55.106C535.008 55.47 534.835 55.9973 534.835 56.688V61H533.253V56.688C533.253 55.9973 533.081 55.47 532.735 55.106C532.39 54.7327 531.919 54.546 531.321 54.546C530.724 54.546 530.248 54.7327 529.893 55.106C529.548 55.47 529.375 55.9973 529.375 56.688V61H527.779V53.286H529.375V54.168C529.637 53.8507 529.968 53.6033 530.369 53.426C530.771 53.2487 531.2 53.16 531.657 53.16C532.273 53.16 532.824 53.2907 533.309 53.552C533.795 53.8133 534.168 54.1913 534.429 54.686C534.663 54.2193 535.027 53.8507 535.521 53.58C536.016 53.3 536.548 53.16 537.117 53.16ZM543.922 54.434C544.193 54.0607 544.562 53.7573 545.028 53.524C545.504 53.2813 546.032 53.16 546.61 53.16C547.292 53.16 547.908 53.3233 548.458 53.65C549.009 53.9767 549.443 54.4433 549.76 55.05C550.078 55.6473 550.236 56.3333 550.236 57.108C550.236 57.8827 550.078 58.578 549.76 59.194C549.443 59.8007 549.004 60.2767 548.444 60.622C547.894 60.958 547.282 61.126 546.61 61.126C546.013 61.126 545.481 61.0093 545.014 60.776C544.557 60.5427 544.193 60.244 543.922 59.88V61H542.326V50.64H543.922V54.434ZM548.612 57.108C548.612 56.576 548.5 56.1187 548.276 55.736C548.062 55.344 547.772 55.05 547.408 54.854C547.054 54.6487 546.671 54.546 546.26 54.546C545.859 54.546 545.476 54.6487 545.112 54.854C544.758 55.0593 544.468 55.358 544.244 55.75C544.03 56.142 543.922 56.604 543.922 57.136C543.922 57.668 544.03 58.1347 544.244 58.536C544.468 58.928 544.758 59.2267 545.112 59.432C545.476 59.6373 545.859 59.74 546.26 59.74C546.671 59.74 547.054 59.6373 547.408 59.432C547.772 59.2173 548.062 58.9093 548.276 58.508C548.5 58.1067 548.612 57.64 548.612 57.108ZM558.885 56.954C558.885 57.2433 558.866 57.5047 558.829 57.738H552.935C552.981 58.354 553.21 58.8487 553.621 59.222C554.031 59.5953 554.535 59.782 555.133 59.782C555.991 59.782 556.598 59.4227 556.953 58.704H558.675C558.441 59.4133 558.017 59.9967 557.401 60.454C556.794 60.902 556.038 61.126 555.133 61.126C554.395 61.126 553.733 60.9627 553.145 60.636C552.566 60.3 552.109 59.8333 551.773 59.236C551.446 58.6293 551.283 57.9293 551.283 57.136C551.283 56.3427 551.441 55.6473 551.759 55.05C552.085 54.4433 552.538 53.9767 553.117 53.65C553.705 53.3233 554.377 53.16 555.133 53.16C555.861 53.16 556.509 53.3187 557.079 53.636C557.648 53.9533 558.091 54.4013 558.409 54.98C558.726 55.5493 558.885 56.2073 558.885 56.954ZM557.219 56.45C557.209 55.862 556.999 55.3907 556.589 55.036C556.178 54.6813 555.669 54.504 555.063 54.504C554.512 54.504 554.041 54.6813 553.649 55.036C553.257 55.3813 553.023 55.8527 552.949 56.45H557.219ZM562.051 54.406C562.285 54.014 562.593 53.7107 562.975 53.496C563.367 53.272 563.829 53.16 564.361 53.16V54.812H563.955C563.33 54.812 562.854 54.9707 562.527 55.288C562.21 55.6053 562.051 56.156 562.051 56.94V61H560.455V53.286H562.051V54.406ZM568.628 61.126C568.022 61.126 567.476 61.0187 566.99 60.804C566.514 60.58 566.136 60.2813 565.856 59.908C565.576 59.5253 565.427 59.1007 565.408 58.634H567.06C567.088 58.9607 567.242 59.236 567.522 59.46C567.812 59.6747 568.171 59.782 568.6 59.782C569.048 59.782 569.394 59.698 569.636 59.53C569.888 59.3527 570.014 59.1287 570.014 58.858C570.014 58.5687 569.874 58.354 569.594 58.214C569.324 58.074 568.89 57.92 568.292 57.752C567.714 57.5933 567.242 57.4393 566.878 57.29C566.514 57.1407 566.197 56.912 565.926 56.604C565.665 56.296 565.534 55.89 565.534 55.386C565.534 54.9753 565.656 54.602 565.898 54.266C566.141 53.9207 566.486 53.65 566.934 53.454C567.392 53.258 567.914 53.16 568.502 53.16C569.38 53.16 570.084 53.384 570.616 53.832C571.158 54.2707 571.447 54.8727 571.484 55.638H569.888C569.86 55.2927 569.72 55.0173 569.468 54.812C569.216 54.6067 568.876 54.504 568.446 54.504C568.026 54.504 567.704 54.5833 567.48 54.742C567.256 54.9007 567.144 55.1107 567.144 55.372C567.144 55.5773 567.219 55.75 567.368 55.89C567.518 56.03 567.7 56.142 567.914 56.226C568.129 56.3007 568.446 56.3987 568.866 56.52C569.426 56.6693 569.884 56.8233 570.238 56.982C570.602 57.1313 570.915 57.3553 571.176 57.654C571.438 57.9527 571.573 58.3493 571.582 58.844C571.582 59.2827 571.461 59.6747 571.218 60.02C570.976 60.3653 570.63 60.636 570.182 60.832C569.744 61.028 569.226 61.126 568.628 61.126Z" fill="#101828"/>
</svg>
