<svg width="616" height="82" viewBox="0 0 616 82" fill="none" xmlns="http://www.w3.org/2000/svg">
<path d="M616 81H0V83H616V81Z" fill="#EAECF0" mask="url(#path-1-inside-1_44_6742)"/>
<rect x="65" y="16" width="24" height="24" rx="12" fill="#DBEEFB"/>
<path fill-rule="evenodd" clip-rule="evenodd" d="M82.0964 23.39L74.9364 30.3L73.0364 28.27C72.6864 27.94 72.1364 27.92 71.7364 28.2C71.3464 28.49 71.2364 29 71.4764 29.41L73.7264 33.07C73.9464 33.41 74.3264 33.62 74.7564 33.62C75.1664 33.62 75.5564 33.41 75.7764 33.07C76.1364 32.6 83.0064 24.41 83.0064 24.41C83.9064 23.49 82.8164 22.68 82.0964 23.38V23.39Z" fill="#146AA3"/>
<line x1="97" y1="27.5" x2="154" y2="27.5" stroke="#D0D5DD"/>
<path d="M41.0979 54.07C40.8273 53.5007 40.4353 53.062 39.9219 52.754C39.4086 52.4367 38.8113 52.278 38.1299 52.278C37.4486 52.278 36.8326 52.4367 36.2819 52.754C35.7406 53.062 35.3113 53.51 34.9939 54.098C34.6859 54.6767 34.5319 55.3487 34.5319 56.114C34.5319 56.8793 34.6859 57.5513 34.9939 58.13C35.3113 58.7087 35.7406 59.1567 36.2819 59.474C36.8326 59.782 37.4486 59.936 38.1299 59.936C39.0819 59.936 39.8659 59.6513 40.4819 59.082C41.0979 58.5127 41.4573 57.7427 41.5599 56.772H37.6679V55.736H42.9179V56.716C42.8433 57.5187 42.5913 58.256 42.1619 58.928C41.7326 59.5907 41.1679 60.118 40.4679 60.51C39.7679 60.8927 38.9886 61.084 38.1299 61.084C37.2246 61.084 36.3986 60.874 35.6519 60.454C34.9053 60.0247 34.3126 59.432 33.8739 58.676C33.4446 57.92 33.2299 57.066 33.2299 56.114C33.2299 55.162 33.4446 54.308 33.8739 53.552C34.3126 52.7867 34.9053 52.194 35.6519 51.774C36.3986 51.3447 37.2246 51.13 38.1299 51.13C39.1659 51.13 40.0806 51.3867 40.8739 51.9C41.6766 52.4133 42.2599 53.1367 42.6239 54.07H41.0979ZM45.8764 54.574C46.1004 54.1353 46.4177 53.7947 46.8284 53.552C47.2484 53.3093 47.7571 53.188 48.3544 53.188V54.504H48.0184C46.5904 54.504 45.8764 55.2787 45.8764 56.828V61H44.6024V53.328H45.8764V54.574ZM53.1711 61.126C52.4524 61.126 51.7991 60.9627 51.2111 60.636C50.6324 60.3093 50.1751 59.8473 49.8391 59.25C49.5124 58.6433 49.3491 57.9433 49.3491 57.15C49.3491 56.366 49.5171 55.6753 49.8531 55.078C50.1984 54.4713 50.6651 54.0093 51.2531 53.692C51.8411 53.3653 52.4991 53.202 53.2271 53.202C53.9551 53.202 54.6131 53.3653 55.2011 53.692C55.7891 54.0093 56.2511 54.4667 56.5871 55.064C56.9324 55.6613 57.1051 56.3567 57.1051 57.15C57.1051 57.9433 56.9277 58.6433 56.5731 59.25C56.2277 59.8473 55.7564 60.3093 55.1591 60.636C54.5617 60.9627 53.8991 61.126 53.1711 61.126ZM53.1711 60.006C53.6284 60.006 54.0577 59.8987 54.4591 59.684C54.8604 59.4693 55.1824 59.1473 55.4251 58.718C55.6771 58.2887 55.8031 57.766 55.8031 57.15C55.8031 56.534 55.6817 56.0113 55.4391 55.582C55.1964 55.1527 54.8791 54.8353 54.4871 54.63C54.0951 54.4153 53.6704 54.308 53.2131 54.308C52.7464 54.308 52.3171 54.4153 51.9251 54.63C51.5424 54.8353 51.2344 55.1527 51.0011 55.582C50.7677 56.0113 50.6511 56.534 50.6511 57.15C50.6511 57.7753 50.7631 58.3027 50.9871 58.732C51.2204 59.1613 51.5284 59.4833 51.9111 59.698C52.2937 59.9033 52.7137 60.006 53.1711 60.006ZM65.5841 53.328V61H64.3101V59.866C64.0675 60.258 63.7268 60.566 63.2881 60.79C62.8588 61.0047 62.3828 61.112 61.8601 61.112C61.2628 61.112 60.7261 60.9907 60.2501 60.748C59.7741 60.496 59.3961 60.1227 59.1161 59.628C58.8455 59.1333 58.7101 58.5313 58.7101 57.822V53.328H59.9701V57.654C59.9701 58.41 60.1615 58.9933 60.5441 59.404C60.9268 59.8053 61.4495 60.006 62.1121 60.006C62.7935 60.006 63.3301 59.796 63.7221 59.376C64.1141 58.956 64.3101 58.3447 64.3101 57.542V53.328H65.5841ZM69.0092 54.742C69.2612 54.3033 69.6346 53.9393 70.1292 53.65C70.6332 53.3513 71.2166 53.202 71.8792 53.202C72.5606 53.202 73.1766 53.3653 73.7272 53.692C74.2872 54.0187 74.7259 54.4807 75.0432 55.078C75.3606 55.666 75.5192 56.352 75.5192 57.136C75.5192 57.9107 75.3606 58.6013 75.0432 59.208C74.7259 59.8147 74.2872 60.286 73.7272 60.622C73.1766 60.958 72.5606 61.126 71.8792 61.126C71.2259 61.126 70.6472 60.9813 70.1432 60.692C69.6486 60.3933 69.2706 60.0247 69.0092 59.586V64.64H67.7352V53.328H69.0092V54.742ZM74.2172 57.136C74.2172 56.5573 74.1006 56.0533 73.8672 55.624C73.6339 55.1947 73.3166 54.868 72.9152 54.644C72.5232 54.42 72.0892 54.308 71.6132 54.308C71.1466 54.308 70.7126 54.4247 70.3112 54.658C69.9192 54.882 69.6019 55.2133 69.3592 55.652C69.1259 56.0813 69.0092 56.5807 69.0092 57.15C69.0092 57.7287 69.1259 58.2373 69.3592 58.676C69.6019 59.1053 69.9192 59.4367 70.3112 59.67C70.7126 59.894 71.1466 60.006 71.6132 60.006C72.0892 60.006 72.5232 59.894 72.9152 59.67C73.3166 59.4367 73.6339 59.1053 73.8672 58.676C74.1006 58.2373 74.2172 57.724 74.2172 57.136ZM84.6666 53.188C85.5999 53.188 86.3559 53.4727 86.9346 54.042C87.5133 54.602 87.8026 55.414 87.8026 56.478V61H86.5426V56.66C86.5426 55.8947 86.3513 55.3113 85.9686 54.91C85.5859 54.4993 85.0633 54.294 84.4006 54.294C83.7286 54.294 83.1919 54.504 82.7906 54.924C82.3986 55.344 82.2026 55.9553 82.2026 56.758V61H80.9286V53.328H82.2026V54.42C82.4546 54.028 82.7953 53.7247 83.2246 53.51C83.6633 53.2953 84.1439 53.188 84.6666 53.188ZM89.4077 57.136C89.4077 56.352 89.5663 55.666 89.8837 55.078C90.201 54.4807 90.635 54.0187 91.1857 53.692C91.7457 53.3653 92.3663 53.202 93.0477 53.202C93.7197 53.202 94.303 53.3467 94.7977 53.636C95.2923 53.9253 95.661 54.2893 95.9037 54.728V53.328H97.1917V61H95.9037V59.572C95.6517 60.02 95.2737 60.3933 94.7697 60.692C94.275 60.9813 93.6963 61.126 93.0337 61.126C92.3523 61.126 91.7363 60.958 91.1857 60.622C90.635 60.286 90.201 59.8147 89.8837 59.208C89.5663 58.6013 89.4077 57.9107 89.4077 57.136ZM95.9037 57.15C95.9037 56.5713 95.787 56.0673 95.5537 55.638C95.3203 55.2087 95.003 54.882 94.6017 54.658C94.2097 54.4247 93.7757 54.308 93.2997 54.308C92.8237 54.308 92.3897 54.42 91.9977 54.644C91.6057 54.868 91.293 55.1947 91.0597 55.624C90.8263 56.0533 90.7097 56.5573 90.7097 57.136C90.7097 57.724 90.8263 58.2373 91.0597 58.676C91.293 59.1053 91.6057 59.4367 91.9977 59.67C92.3897 59.894 92.8237 60.006 93.2997 60.006C93.7757 60.006 94.2097 59.894 94.6017 59.67C95.003 59.4367 95.3203 59.1053 95.5537 58.676C95.787 58.2373 95.9037 57.7287 95.9037 57.15ZM108.571 53.188C109.168 53.188 109.7 53.314 110.167 53.566C110.633 53.8087 111.002 54.1773 111.273 54.672C111.543 55.1667 111.679 55.7687 111.679 56.478V61H110.419V56.66C110.419 55.8947 110.227 55.3113 109.845 54.91C109.471 54.4993 108.963 54.294 108.319 54.294C107.656 54.294 107.129 54.5087 106.737 54.938C106.345 55.358 106.149 55.9693 106.149 56.772V61H104.889V56.66C104.889 55.8947 104.697 55.3113 104.315 54.91C103.941 54.4993 103.433 54.294 102.789 54.294C102.126 54.294 101.599 54.5087 101.207 54.938C100.815 55.358 100.619 55.9693 100.619 56.772V61H99.3446V53.328H100.619V54.434C100.871 54.0327 101.207 53.7247 101.627 53.51C102.056 53.2953 102.527 53.188 103.041 53.188C103.685 53.188 104.254 53.3327 104.749 53.622C105.243 53.9113 105.612 54.336 105.855 54.896C106.069 54.3547 106.424 53.9347 106.919 53.636C107.413 53.3373 107.964 53.188 108.571 53.188ZM120.768 56.87C120.768 57.1127 120.754 57.3693 120.726 57.64H114.594C114.641 58.396 114.898 58.9887 115.364 59.418C115.84 59.838 116.414 60.048 117.086 60.048C117.637 60.048 118.094 59.922 118.458 59.67C118.832 59.4087 119.093 59.0633 119.242 58.634H120.614C120.409 59.3713 119.998 59.9733 119.382 60.44C118.766 60.8973 118.001 61.126 117.086 61.126C116.358 61.126 115.705 60.9627 115.126 60.636C114.557 60.3093 114.109 59.8473 113.782 59.25C113.456 58.6433 113.292 57.9433 113.292 57.15C113.292 56.3567 113.451 55.6613 113.768 55.064C114.086 54.4667 114.529 54.0093 115.098 53.692C115.677 53.3653 116.34 53.202 117.086 53.202C117.814 53.202 118.458 53.3607 119.018 53.678C119.578 53.9953 120.008 54.434 120.306 54.994C120.614 55.5447 120.768 56.17 120.768 56.87ZM119.452 56.604C119.452 56.1187 119.345 55.7033 119.13 55.358C118.916 55.0033 118.622 54.7373 118.248 54.56C117.884 54.3733 117.478 54.28 117.03 54.28C116.386 54.28 115.836 54.4853 115.378 54.896C114.93 55.3067 114.674 55.876 114.608 56.604H119.452Z" fill="#475467"/>
<line x1="154" y1="27.5" x2="211" y2="27.5" stroke="#D0D5DD"/>
<rect x="219" y="16" width="24" height="24" rx="12" fill="#101828"/>
<path d="M228.338 30.788C229.234 30.0413 229.948 29.4207 230.48 28.926C231.012 28.422 231.456 27.8993 231.81 27.358C232.165 26.8167 232.342 26.2847 232.342 25.762C232.342 25.286 232.23 24.9127 232.006 24.642C231.782 24.3713 231.437 24.236 230.97 24.236C230.504 24.236 230.144 24.3947 229.892 24.712C229.64 25.02 229.51 25.4447 229.5 25.986H227.596C227.634 24.866 227.965 24.0167 228.59 23.438C229.225 22.8593 230.028 22.57 230.998 22.57C232.062 22.57 232.879 22.8547 233.448 23.424C234.018 23.984 234.302 24.726 234.302 25.65C234.302 26.378 234.106 27.0733 233.714 27.736C233.322 28.3987 232.874 28.9773 232.37 29.472C231.866 29.9573 231.208 30.5453 230.396 31.236H234.526V32.86H227.61V31.404L228.338 30.788Z" fill="white"/>
<line x1="251" y1="27.5" x2="308" y2="27.5" stroke="#D0D5DD"/>
<path d="M199.101 61.098C198.447 61.098 197.859 60.986 197.337 60.762C196.814 60.5287 196.403 60.202 196.105 59.782C195.806 59.362 195.657 58.872 195.657 58.312H197.365C197.402 58.732 197.565 59.0773 197.855 59.348C198.153 59.6187 198.569 59.754 199.101 59.754C199.651 59.754 200.081 59.6233 200.389 59.362C200.697 59.0913 200.851 58.746 200.851 58.326C200.851 57.9993 200.753 57.7333 200.557 57.528C200.37 57.3227 200.132 57.164 199.843 57.052C199.563 56.94 199.171 56.8187 198.667 56.688C198.032 56.52 197.514 56.352 197.113 56.184C196.721 56.0067 196.385 55.736 196.105 55.372C195.825 55.008 195.685 54.5227 195.685 53.916C195.685 53.356 195.825 52.866 196.105 52.446C196.385 52.026 196.777 51.704 197.281 51.48C197.785 51.256 198.368 51.144 199.031 51.144C199.973 51.144 200.743 51.382 201.341 51.858C201.947 52.3247 202.283 52.9687 202.349 53.79H200.585C200.557 53.4353 200.389 53.132 200.081 52.88C199.773 52.628 199.367 52.502 198.863 52.502C198.405 52.502 198.032 52.6187 197.743 52.852C197.453 53.0853 197.309 53.4213 197.309 53.86C197.309 54.1587 197.397 54.406 197.575 54.602C197.761 54.7887 197.995 54.938 198.275 55.05C198.555 55.162 198.937 55.2833 199.423 55.414C200.067 55.5913 200.589 55.7687 200.991 55.946C201.401 56.1233 201.747 56.3987 202.027 56.772C202.316 57.136 202.461 57.626 202.461 58.242C202.461 58.7367 202.325 59.2033 202.055 59.642C201.793 60.0807 201.406 60.4353 200.893 60.706C200.389 60.9673 199.791 61.098 199.101 61.098ZM206.206 54.588V58.858C206.206 59.1473 206.271 59.3573 206.402 59.488C206.542 59.6093 206.775 59.67 207.102 59.67H208.082V61H206.822C206.103 61 205.553 60.832 205.17 60.496C204.787 60.16 204.596 59.614 204.596 58.858V54.588H203.686V53.286H204.596V51.368H206.206V53.286H208.082V54.588H206.206ZM211.149 54.406C211.382 54.014 211.69 53.7107 212.073 53.496C212.465 53.272 212.927 53.16 213.459 53.16V54.812H213.053C212.428 54.812 211.952 54.9707 211.625 55.288C211.308 55.6053 211.149 56.156 211.149 56.94V61H209.553V53.286H211.149V54.406ZM221.912 53.286V61H220.316V60.09C220.064 60.4073 219.733 60.6593 219.322 60.846C218.921 61.0233 218.491 61.112 218.034 61.112C217.427 61.112 216.881 60.986 216.396 60.734C215.92 60.482 215.542 60.1087 215.262 59.614C214.991 59.1193 214.856 58.522 214.856 57.822V53.286H216.438V57.584C216.438 58.2747 216.611 58.8067 216.956 59.18C217.301 59.544 217.773 59.726 218.37 59.726C218.967 59.726 219.439 59.544 219.784 59.18C220.139 58.8067 220.316 58.2747 220.316 57.584V53.286H221.912ZM223.486 57.136C223.486 56.3427 223.644 55.6473 223.962 55.05C224.288 54.4433 224.736 53.9767 225.306 53.65C225.875 53.3233 226.528 53.16 227.266 53.16C228.199 53.16 228.969 53.384 229.576 53.832C230.192 54.2707 230.607 54.9007 230.822 55.722H229.1C228.96 55.3393 228.736 55.0407 228.428 54.826C228.12 54.6113 227.732 54.504 227.266 54.504C226.612 54.504 226.09 54.7373 225.698 55.204C225.315 55.6613 225.124 56.3053 225.124 57.136C225.124 57.9667 225.315 58.6153 225.698 59.082C226.09 59.5487 226.612 59.782 227.266 59.782C228.19 59.782 228.801 59.376 229.1 58.564H230.822C230.598 59.348 230.178 59.9733 229.562 60.44C228.946 60.8973 228.18 61.126 227.266 61.126C226.528 61.126 225.875 60.9627 225.306 60.636C224.736 60.3 224.288 59.8333 223.962 59.236C223.644 58.6293 223.486 57.9293 223.486 57.136ZM234.274 54.588V58.858C234.274 59.1473 234.34 59.3573 234.47 59.488C234.61 59.6093 234.844 59.67 235.17 59.67H236.15V61H234.89C234.172 61 233.621 60.832 233.238 60.496C232.856 60.16 232.664 59.614 232.664 58.858V54.588H231.754V53.286H232.664V51.368H234.274V53.286H236.15V54.588H234.274ZM244.607 53.286V61H243.011V60.09C242.759 60.4073 242.428 60.6593 242.017 60.846C241.616 61.0233 241.187 61.112 240.729 61.112C240.123 61.112 239.577 60.986 239.091 60.734C238.615 60.482 238.237 60.1087 237.957 59.614C237.687 59.1193 237.551 58.522 237.551 57.822V53.286H239.133V57.584C239.133 58.2747 239.306 58.8067 239.651 59.18C239.997 59.544 240.468 59.726 241.065 59.726C241.663 59.726 242.134 59.544 242.479 59.18C242.834 58.8067 243.011 58.2747 243.011 57.584V53.286H244.607ZM248.309 54.406C248.542 54.014 248.85 53.7107 249.233 53.496C249.625 53.272 250.087 53.16 250.619 53.16V54.812H250.213C249.588 54.812 249.112 54.9707 248.785 55.288C248.468 55.6053 248.309 56.156 248.309 56.94V61H246.713V53.286H248.309V54.406ZM259.156 56.954C259.156 57.2433 259.137 57.5047 259.1 57.738H253.206C253.253 58.354 253.481 58.8487 253.892 59.222C254.303 59.5953 254.807 59.782 255.404 59.782C256.263 59.782 256.869 59.4227 257.224 58.704H258.946C258.713 59.4133 258.288 59.9967 257.672 60.454C257.065 60.902 256.309 61.126 255.404 61.126C254.667 61.126 254.004 60.9627 253.416 60.636C252.837 60.3 252.38 59.8333 252.044 59.236C251.717 58.6293 251.554 57.9293 251.554 57.136C251.554 56.3427 251.713 55.6473 252.03 55.05C252.357 54.4433 252.809 53.9767 253.388 53.65C253.976 53.3233 254.648 53.16 255.404 53.16C256.132 53.16 256.781 53.3187 257.35 53.636C257.919 53.9533 258.363 54.4013 258.68 54.98C258.997 55.5493 259.156 56.2073 259.156 56.954ZM257.49 56.45C257.481 55.862 257.271 55.3907 256.86 55.036C256.449 54.6813 255.941 54.504 255.334 54.504C254.783 54.504 254.312 54.6813 253.92 55.036C253.528 55.3813 253.295 55.8527 253.22 56.45H257.49ZM263.527 61.126C262.92 61.126 262.374 61.0187 261.889 60.804C261.413 60.58 261.035 60.2813 260.755 59.908C260.475 59.5253 260.325 59.1007 260.307 58.634H261.959C261.987 58.9607 262.141 59.236 262.421 59.46C262.71 59.6747 263.069 59.782 263.499 59.782C263.947 59.782 264.292 59.698 264.535 59.53C264.787 59.3527 264.913 59.1287 264.913 58.858C264.913 58.5687 264.773 58.354 264.493 58.214C264.222 58.074 263.788 57.92 263.191 57.752C262.612 57.5933 262.141 57.4393 261.777 57.29C261.413 57.1407 261.095 56.912 260.825 56.604C260.563 56.296 260.433 55.89 260.433 55.386C260.433 54.9753 260.554 54.602 260.797 54.266C261.039 53.9207 261.385 53.65 261.833 53.454C262.29 53.258 262.813 53.16 263.401 53.16C264.278 53.16 264.983 53.384 265.515 53.832C266.056 54.2707 266.345 54.8727 266.383 55.638H264.787C264.759 55.2927 264.619 55.0173 264.367 54.812C264.115 54.6067 263.774 54.504 263.345 54.504C262.925 54.504 262.603 54.5833 262.379 54.742C262.155 54.9007 262.043 55.1107 262.043 55.372C262.043 55.5773 262.117 55.75 262.267 55.89C262.416 56.03 262.598 56.142 262.813 56.226C263.027 56.3007 263.345 56.3987 263.765 56.52C264.325 56.6693 264.782 56.8233 265.137 56.982C265.501 57.1313 265.813 57.3553 266.075 57.654C266.336 57.9527 266.471 58.3493 266.481 58.844C266.481 59.2827 266.359 59.6747 266.117 60.02C265.874 60.3653 265.529 60.636 265.081 60.832C264.642 61.028 264.124 61.126 263.527 61.126Z" fill="#101828"/>
<line x1="308" y1="27.5" x2="365" y2="27.5" stroke="#D0D5DD"/>
<rect x="373.5" y="16.5" width="23" height="23" rx="11.5" stroke="#D0D5DD"/>
<path d="M381.656 25.314C381.712 24.446 382.043 23.7693 382.65 23.284C383.266 22.7987 384.05 22.556 385.002 22.556C385.655 22.556 386.22 22.6727 386.696 22.906C387.172 23.1393 387.531 23.4567 387.774 23.858C388.016 24.2593 388.138 24.712 388.138 25.216C388.138 25.7947 387.984 26.2893 387.676 26.7C387.368 27.1107 386.999 27.386 386.57 27.526V27.582C387.12 27.75 387.55 28.058 387.858 28.506C388.166 28.9447 388.32 29.5093 388.32 30.2C388.32 30.7507 388.194 31.2407 387.942 31.67C387.69 32.0993 387.316 32.44 386.822 32.692C386.327 32.9347 385.734 33.056 385.044 33.056C384.036 33.056 383.205 32.7993 382.552 32.286C381.908 31.7633 381.562 31.0167 381.516 30.046H383.056C383.093 30.5407 383.284 30.9467 383.63 31.264C383.975 31.572 384.442 31.726 385.03 31.726C385.599 31.726 386.038 31.572 386.346 31.264C386.654 30.9467 386.808 30.5407 386.808 30.046C386.808 29.3927 386.598 28.9307 386.178 28.66C385.767 28.38 385.132 28.24 384.274 28.24H383.91V26.924H384.288C385.044 26.9147 385.618 26.7887 386.01 26.546C386.411 26.3033 386.612 25.9207 386.612 25.398C386.612 24.95 386.467 24.5953 386.178 24.334C385.888 24.0633 385.478 23.928 384.946 23.928C384.423 23.928 384.017 24.0633 383.728 24.334C383.438 24.5953 383.266 24.922 383.21 25.314H381.656Z" fill="#101828"/>
<line x1="405" y1="27.5" x2="462" y2="27.5" stroke="#D0D5DD"/>
<path d="M362.743 52.278V55.54H366.299V56.59H362.743V59.95H366.719V61H361.469V51.228H366.719V52.278H362.743ZM372.384 53.188C373.318 53.188 374.074 53.4727 374.652 54.042C375.231 54.602 375.52 55.414 375.52 56.478V61H374.26V56.66C374.26 55.8947 374.069 55.3113 373.686 54.91C373.304 54.4993 372.781 54.294 372.118 54.294C371.446 54.294 370.91 54.504 370.508 54.924C370.116 55.344 369.92 55.9553 369.92 56.758V61H368.646V53.328H369.92V54.42C370.172 54.028 370.513 53.7247 370.942 53.51C371.381 53.2953 371.862 53.188 372.384 53.188ZM379.155 54.378V58.9C379.155 59.2733 379.235 59.5393 379.393 59.698C379.552 59.8473 379.827 59.922 380.219 59.922H381.157V61H380.009C379.3 61 378.768 60.8367 378.413 60.51C378.059 60.1833 377.881 59.6467 377.881 58.9V54.378H376.887V53.328H377.881V51.396H379.155V53.328H381.157V54.378H379.155ZM383.359 52.082C383.116 52.082 382.911 51.998 382.743 51.83C382.575 51.662 382.491 51.4567 382.491 51.214C382.491 50.9713 382.575 50.766 382.743 50.598C382.911 50.43 383.116 50.346 383.359 50.346C383.592 50.346 383.788 50.43 383.947 50.598C384.115 50.766 384.199 50.9713 384.199 51.214C384.199 51.4567 384.115 51.662 383.947 51.83C383.788 51.998 383.592 52.082 383.359 52.082ZM383.975 53.328V61H382.701V53.328H383.975ZM387.7 54.378V58.9C387.7 59.2733 387.78 59.5393 387.938 59.698C388.097 59.8473 388.372 59.922 388.764 59.922H389.702V61H388.554C387.845 61 387.313 60.8367 386.958 60.51C386.604 60.1833 386.426 59.6467 386.426 58.9V54.378H385.432V53.328H386.426V51.396H387.7V53.328H389.702V54.378H387.7ZM391.904 52.082C391.661 52.082 391.456 51.998 391.288 51.83C391.12 51.662 391.036 51.4567 391.036 51.214C391.036 50.9713 391.12 50.766 391.288 50.598C391.456 50.43 391.661 50.346 391.904 50.346C392.137 50.346 392.333 50.43 392.492 50.598C392.66 50.766 392.744 50.9713 392.744 51.214C392.744 51.4567 392.66 51.662 392.492 51.83C392.333 51.998 392.137 52.082 391.904 52.082ZM392.52 53.328V61H391.246V53.328H392.52ZM401.691 56.87C401.691 57.1127 401.677 57.3693 401.649 57.64H395.517C395.564 58.396 395.821 58.9887 396.287 59.418C396.763 59.838 397.337 60.048 398.009 60.048C398.56 60.048 399.017 59.922 399.381 59.67C399.755 59.4087 400.016 59.0633 400.165 58.634H401.537C401.332 59.3713 400.921 59.9733 400.305 60.44C399.689 60.8973 398.924 61.126 398.009 61.126C397.281 61.126 396.628 60.9627 396.049 60.636C395.48 60.3093 395.032 59.8473 394.705 59.25C394.379 58.6433 394.215 57.9433 394.215 57.15C394.215 56.3567 394.374 55.6613 394.691 55.064C395.009 54.4667 395.452 54.0093 396.021 53.692C396.6 53.3653 397.263 53.202 398.009 53.202C398.737 53.202 399.381 53.3607 399.941 53.678C400.501 53.9953 400.931 54.434 401.229 54.994C401.537 55.5447 401.691 56.17 401.691 56.87ZM400.375 56.604C400.375 56.1187 400.268 55.7033 400.053 55.358C399.839 55.0033 399.545 54.7373 399.171 54.56C398.807 54.3733 398.401 54.28 397.953 54.28C397.309 54.28 396.759 54.4853 396.301 54.896C395.853 55.3067 395.597 55.876 395.531 56.604H400.375ZM406.089 61.126C405.501 61.126 404.974 61.028 404.507 60.832C404.04 60.6267 403.672 60.3467 403.401 59.992C403.13 59.628 402.981 59.2127 402.953 58.746H404.269C404.306 59.1287 404.484 59.4413 404.801 59.684C405.128 59.9267 405.552 60.048 406.075 60.048C406.56 60.048 406.943 59.9407 407.223 59.726C407.503 59.5113 407.643 59.2407 407.643 58.914C407.643 58.578 407.494 58.3307 407.195 58.172C406.896 58.004 406.434 57.8407 405.809 57.682C405.24 57.5327 404.773 57.3833 404.409 57.234C404.054 57.0753 403.746 56.8467 403.485 56.548C403.233 56.24 403.107 55.8387 403.107 55.344C403.107 54.952 403.224 54.5927 403.457 54.266C403.69 53.9393 404.022 53.6827 404.451 53.496C404.88 53.3 405.37 53.202 405.921 53.202C406.77 53.202 407.456 53.4167 407.979 53.846C408.502 54.2753 408.782 54.8633 408.819 55.61H407.545C407.517 55.2087 407.354 54.8867 407.055 54.644C406.766 54.4013 406.374 54.28 405.879 54.28C405.422 54.28 405.058 54.378 404.787 54.574C404.516 54.77 404.381 55.0267 404.381 55.344C404.381 55.596 404.46 55.806 404.619 55.974C404.787 56.1327 404.992 56.2633 405.235 56.366C405.487 56.4593 405.832 56.5667 406.271 56.688C406.822 56.8373 407.27 56.9867 407.615 57.136C407.96 57.276 408.254 57.4907 408.497 57.78C408.749 58.0693 408.88 58.4473 408.889 58.914C408.889 59.334 408.772 59.712 408.539 60.048C408.306 60.384 407.974 60.65 407.545 60.846C407.125 61.0327 406.64 61.126 406.089 61.126Z" fill="#475467"/>
<line x1="462" y1="27.5" x2="519" y2="27.5" stroke="#D0D5DD"/>
<rect x="527.5" y="16.5" width="23" height="23" rx="11.5" stroke="#D0D5DD"/>
<path d="M535.112 30.872V29.668L539.816 22.92H541.748V29.486H543.05V30.872H541.748V33H540.18V30.872H535.112ZM540.25 24.544L536.946 29.486H540.25V24.544Z" fill="#101828"/>
<path d="M517.054 51.312V61H515.78V53.776L512.56 61H511.664L508.43 53.762V61H507.156V51.312H508.528L512.112 59.32L515.696 51.312H517.054ZM526.215 56.87C526.215 57.1127 526.201 57.3693 526.173 57.64H520.041C520.087 58.396 520.344 58.9887 520.811 59.418C521.287 59.838 521.861 60.048 522.533 60.048C523.083 60.048 523.541 59.922 523.905 59.67C524.278 59.4087 524.539 59.0633 524.689 58.634H526.061C525.855 59.3713 525.445 59.9733 524.829 60.44C524.213 60.8973 523.447 61.126 522.533 61.126C521.805 61.126 521.151 60.9627 520.573 60.636C520.003 60.3093 519.555 59.8473 519.229 59.25C518.902 58.6433 518.739 57.9433 518.739 57.15C518.739 56.3567 518.897 55.6613 519.215 55.064C519.532 54.4667 519.975 54.0093 520.545 53.692C521.123 53.3653 521.786 53.202 522.533 53.202C523.261 53.202 523.905 53.3607 524.465 53.678C525.025 53.9953 525.454 54.434 525.753 54.994C526.061 55.5447 526.215 56.17 526.215 56.87ZM524.899 56.604C524.899 56.1187 524.791 55.7033 524.577 55.358C524.362 55.0033 524.068 54.7373 523.695 54.56C523.331 54.3733 522.925 54.28 522.477 54.28C521.833 54.28 521.282 54.4853 520.825 54.896C520.377 55.3067 520.12 55.876 520.055 56.604H524.899ZM537.122 53.188C537.72 53.188 538.252 53.314 538.718 53.566C539.185 53.8087 539.554 54.1773 539.824 54.672C540.095 55.1667 540.23 55.7687 540.23 56.478V61H538.97V56.66C538.97 55.8947 538.779 55.3113 538.396 54.91C538.023 54.4993 537.514 54.294 536.87 54.294C536.208 54.294 535.68 54.5087 535.288 54.938C534.896 55.358 534.7 55.9693 534.7 56.772V61H533.44V56.66C533.44 55.8947 533.249 55.3113 532.866 54.91C532.493 54.4993 531.984 54.294 531.34 54.294C530.678 54.294 530.15 54.5087 529.758 54.938C529.366 55.358 529.17 55.9693 529.17 56.772V61H527.896V53.328H529.17V54.434C529.422 54.0327 529.758 53.7247 530.178 53.51C530.608 53.2953 531.079 53.188 531.592 53.188C532.236 53.188 532.806 53.3327 533.3 53.622C533.795 53.9113 534.164 54.336 534.406 54.896C534.621 54.3547 534.976 53.9347 535.47 53.636C535.965 53.3373 536.516 53.188 537.122 53.188ZM543.594 54.756C543.856 54.2987 544.238 53.9253 544.742 53.636C545.246 53.3467 545.82 53.202 546.464 53.202C547.155 53.202 547.776 53.3653 548.326 53.692C548.877 54.0187 549.311 54.4807 549.628 55.078C549.946 55.666 550.104 56.352 550.104 57.136C550.104 57.9107 549.946 58.6013 549.628 59.208C549.311 59.8147 548.872 60.286 548.312 60.622C547.762 60.958 547.146 61.126 546.464 61.126C545.802 61.126 545.218 60.9813 544.714 60.692C544.22 60.4027 543.846 60.034 543.594 59.586V61H542.32V50.64H543.594V54.756ZM548.802 57.136C548.802 56.5573 548.686 56.0533 548.452 55.624C548.219 55.1947 547.902 54.868 547.5 54.644C547.108 54.42 546.674 54.308 546.198 54.308C545.732 54.308 545.298 54.4247 544.896 54.658C544.504 54.882 544.187 55.2133 543.944 55.652C543.711 56.0813 543.594 56.5807 543.594 57.15C543.594 57.7287 543.711 58.2373 543.944 58.676C544.187 59.1053 544.504 59.4367 544.896 59.67C545.298 59.894 545.732 60.006 546.198 60.006C546.674 60.006 547.108 59.894 547.5 59.67C547.902 59.4367 548.219 59.1053 548.452 58.676C548.686 58.2373 548.802 57.724 548.802 57.136ZM558.781 56.87C558.781 57.1127 558.767 57.3693 558.739 57.64H552.607C552.654 58.396 552.91 58.9887 553.377 59.418C553.853 59.838 554.427 60.048 555.099 60.048C555.65 60.048 556.107 59.922 556.471 59.67C556.844 59.4087 557.106 59.0633 557.255 58.634H558.627C558.422 59.3713 558.011 59.9733 557.395 60.44C556.779 60.8973 556.014 61.126 555.099 61.126C554.371 61.126 553.718 60.9627 553.139 60.636C552.57 60.3093 552.122 59.8473 551.795 59.25C551.468 58.6433 551.305 57.9433 551.305 57.15C551.305 56.3567 551.464 55.6613 551.781 55.064C552.098 54.4667 552.542 54.0093 553.111 53.692C553.69 53.3653 554.352 53.202 555.099 53.202C555.827 53.202 556.471 53.3607 557.031 53.678C557.591 53.9953 558.02 54.434 558.319 54.994C558.627 55.5447 558.781 56.17 558.781 56.87ZM557.465 56.604C557.465 56.1187 557.358 55.7033 557.143 55.358C556.928 55.0033 556.634 54.7373 556.261 54.56C555.897 54.3733 555.491 54.28 555.043 54.28C554.399 54.28 553.848 54.4853 553.391 54.896C552.943 55.3067 552.686 55.876 552.621 56.604H557.465ZM561.737 54.574C561.961 54.1353 562.278 53.7947 562.689 53.552C563.109 53.3093 563.617 53.188 564.215 53.188V54.504H563.879C562.451 54.504 561.737 55.2787 561.737 56.828V61H560.463V53.328H561.737V54.574ZM568.401 61.126C567.813 61.126 567.286 61.028 566.819 60.832C566.353 60.6267 565.984 60.3467 565.713 59.992C565.443 59.628 565.293 59.2127 565.265 58.746H566.581C566.619 59.1287 566.796 59.4413 567.113 59.684C567.44 59.9267 567.865 60.048 568.387 60.048C568.873 60.048 569.255 59.9407 569.535 59.726C569.815 59.5113 569.955 59.2407 569.955 58.914C569.955 58.578 569.806 58.3307 569.507 58.172C569.209 58.004 568.747 57.8407 568.121 57.682C567.552 57.5327 567.085 57.3833 566.721 57.234C566.367 57.0753 566.059 56.8467 565.797 56.548C565.545 56.24 565.419 55.8387 565.419 55.344C565.419 54.952 565.536 54.5927 565.769 54.266C566.003 53.9393 566.334 53.6827 566.763 53.496C567.193 53.3 567.683 53.202 568.233 53.202C569.083 53.202 569.769 53.4167 570.291 53.846C570.814 54.2753 571.094 54.8633 571.131 55.61H569.857C569.829 55.2087 569.666 54.8867 569.367 54.644C569.078 54.4013 568.686 54.28 568.191 54.28C567.734 54.28 567.37 54.378 567.099 54.574C566.829 54.77 566.693 55.0267 566.693 55.344C566.693 55.596 566.773 55.806 566.931 55.974C567.099 56.1327 567.305 56.2633 567.547 56.366C567.799 56.4593 568.145 56.5667 568.583 56.688C569.134 56.8373 569.582 56.9867 569.927 57.136C570.273 57.276 570.567 57.4907 570.809 57.78C571.061 58.0693 571.192 58.4473 571.201 58.914C571.201 59.334 571.085 59.712 570.851 60.048C570.618 60.384 570.287 60.65 569.857 60.846C569.437 61.0327 568.952 61.126 568.401 61.126Z" fill="#475467"/>
</svg>
